<?xml version="1.0" encoding="UTF-8"?>
<!DOCTYPE svg PUBLIC "-//W3C//DTD SVG 1.1//EN" "http://www.w3.org/Graphics/SVG/1.1/DTD/svg11.dtd">
<!-- Creator: CorelDRAW 2020 (64-Bit) -->
<svg xmlns="http://www.w3.org/2000/svg" xml:space="preserve" width="220.576mm" height="70.0909mm" version="1.1" style="shape-rendering:geometricPrecision; text-rendering:geometricPrecision; image-rendering:optimizeQuality; fill-rule:evenodd; clip-rule:evenodd"
viewBox="0 0 22657.84 7199.81"
 xmlns:xlink="http://www.w3.org/1999/xlink"
 xmlns:xodm="http://www.corel.com/coreldraw/odm/2003">
 <defs>
  <style type="text/css">
   <![CDATA[
    .fil2 {fill:#002F63}
    .fil8 {fill:#003D77}
    .fil3 {fill:#003E78}
    .fil4 {fill:#005899}
    .fil6 {fill:#005A9D}
    .fil9 {fill:#0069AE}
    .fil7 {fill:#006DB2}
    .fil10 {fill:#0070B6}
    .fil61 {fill:#043B64}
    .fil44 {fill:#153C63}
    .fil68 {fill:#242223}
    .fil46 {fill:#2C2829}
    .fil31 {fill:#2D292A}
    .fil12 {fill:#2E2A2B}
    .fil13 {fill:#302B2C}
    .fil5 {fill:#332F30}
    .fil64 {fill:#353132}
    .fil71 {fill:#353738}
    .fil21 {fill:#3A3839}
    .fil29 {fill:#3B3E44}
    .fil35 {fill:#3C3A3C}
    .fil25 {fill:#3D393A}
    .fil30 {fill:#3E3A3B}
    .fil27 {fill:#3F3B3C}
    .fil33 {fill:#403F41}
    .fil40 {fill:#423F40}
    .fil32 {fill:#424042}
    .fil38 {fill:#434344}
    .fil24 {fill:#454142}
    .fil41 {fill:#454344}
    .fil70 {fill:#45474A}
    .fil51 {fill:#464546}
    .fil65 {fill:#494546}
    .fil1 {fill:#4D494A}
    .fil14 {fill:#514D4E}
    .fil39 {fill:#524F50}
    .fil43 {fill:#535355}
    .fil56 {fill:#545152}
    .fil60 {fill:#565354}
    .fil69 {fill:#575758}
    .fil58 {fill:#595658}
    .fil37 {fill:#5A585A}
    .fil49 {fill:#5B5B5C}
    .fil52 {fill:#5E5D5E}
    .fil48 {fill:#605E5E}
    .fil66 {fill:#626162}
    .fil22 {fill:#646364}
    .fil28 {fill:#666566}
    .fil18 {fill:#686768}
    .fil11 {fill:#69696A}
    .fil16 {fill:#6B6B6D}
    .fil26 {fill:#6D6D6E}
    .fil19 {fill:#6E6E70}
    .fil36 {fill:#747374}
    .fil34 {fill:#757577}
    .fil42 {fill:#757578}
    .fil63 {fill:#787678}
    .fil54 {fill:#808082}
    .fil67 {fill:#848486}
    .fil17 {fill:#868789}
    .fil15 {fill:#87888A}
    .fil23 {fill:#88898B}
    .fil45 {fill:#898787}
    .fil0 {fill:#898A8C}
    .fil59 {fill:#8D8B8B}
    .fil53 {fill:#939394}
    .fil55 {fill:#979798}
    .fil57 {fill:#9B9B9C}
    .fil47 {fill:#9E9EA1}
    .fil50 {fill:#A3A3A4}
    .fil62 {fill:#A6A7A8}
    .fil20 {fill:#B3B3B5}
    .fil73 {fill:#B7B8BB}
    .fil72 {fill:#D0CFCF}
   ]]>
  </style>
 </defs>
 <g id="Plan_x0020_1">
  <metadata id="CorelCorpID_0Corel-Layer"/>
  <path class="fil0" d="M12756.95 1147.19c207.14,43.87 149.65,32.2 290.29,149.84 302.27,141.36 165.43,701.75 107.15,779.89 -143.76,192.79 -599.68,133.54 -883.32,133.53 -134.52,0 -1717.9,24.39 -1820.8,-18.28 -161.29,-66.87 -29.11,7.19 -99.64,-78.58 -27.49,-16.45 -88.12,-54.65 -102.93,-66.57 -87.88,-70.83 -39.49,-12.47 -99.98,-104.31l4.32 -830.2c504.45,0 2253.71,-60.33 2604.9,34.7zm-11733.37 1683.89l-23.21 -151.18c15.33,-28.8 -38.55,-76.94 246.26,-85.47l3129.36 3.85c448.41,3.07 638.56,232.08 1098.56,105.9l874.6 -1573.05 79.11 42.87 52.78 -55.11 19.99 53.89c219.37,-19.96 820.55,1258.99 958.51,1474.97 159.96,250.4 289.25,199.68 673.96,181.26l-67.22 -168.28 1294.3 9.61 97.06 32.83c33.2,-79.04 -154.19,-64.44 116.38,-63.25 79.89,134.48 406.05,81.14 566.34,81.14 -12.02,-55.45 -23.81,-42.27 32,-42.27 98.69,-44.96 2534.8,-58.14 2708.56,-6.56l150 18.98 702.58 33.48c-104.39,-344.96 -255.36,-340.07 -551.19,-487.62 237.52,-113.13 466.44,-81.19 490.39,-691.94 14.42,-367.68 -20.62,-785.54 -219.61,-968.55l-290.19 -29.7c-187.97,13.62 -648.3,-23.58 -891.82,-23.58 -595.88,0 -2183.04,-34.93 -2573.53,13.59 -56.32,241.61 -16.99,594.68 -12.76,851.44 14.75,895.94 123.83,826.99 -501.35,824.21 -432.82,-1.92 -1273.18,93.01 -1374.93,-132.47l-157.62 -144.79 -768.34 -1397.44c-183.24,-32.67 -464.18,-46.27 -606.04,11.99 -202.46,157.89 -691.19,1305.47 -932.91,1647.5 -517.13,34.2 -3789.03,40.94 -4169.11,-27.5 906.6,-76.51 2806.23,35.88 3557.7,-35.09 289.31,-27.32 162.81,8.13 227.01,-121.05l-464.77 -10.93c0,148.04 -578.43,105.52 -782.97,106.25 -312.68,1.12 -625.36,3.62 -938.04,5.19 -299.65,1.5 -599.3,3.14 -898.95,4.59 -541.8,2.63 -655.14,79.97 -829.87,-123.13 -89.13,8.91 -70.27,25.82 -42.72,-61.62l25.08 -811.7 2958.94 -10.22 5.05 -594.25 -3405.46 13.54c-79.24,395.84 17.97,1145.59 -7.6,1599.53 -93.07,81.8 -60.39,58.09 -216.77,78.14l5.95 421.08c299.73,195.8 182.79,200.9 656.52,200.9z"/>
  <path class="fil1" d="M19631.55 211.88l1.37 1345.36c1349,95.75 1269.29,94.85 1240.72,1433.59 -7.49,350.73 5.59,998.94 -51.82,1317.86 -80.49,447.09 -389.3,428.72 -845.61,528.09 -1397.75,304.38 -911.65,363.06 -2206.75,5.6 -359.7,-99.29 -711.33,-208.9 -1068.43,-297.83 -198.11,-49.33 -1009.72,43.75 -1176.45,121.1 164.86,8.74 1187.31,394.46 1327.35,476.63l1596.59 586.66 1303.35 -319.82c162.53,-92.51 1337.96,-362.04 1644.58,-445.96 617.8,-169.11 640.47,-526.2 654.36,-1498.48 7.63,-534.66 86.38,-1629.84 -401.63,-1798.76 -407.31,-140.98 -1324.55,-126.44 -1834.53,-243.34l-4.05 -1283.87 -179.05 73.19z"/>
  <path class="fil2" d="M19751.86 5409.11l-10.2 1339.56c2746.37,-775.73 2818.96,-838.08 2881.88,-3288.83 21.15,-823.79 152.17,-2153.81 -291.79,-2714 -252.06,-318.07 -638.64,-381.88 -1119.01,-445.4 -350.45,-46.35 -1087.47,-184.01 -1402.13,-161.74l4.05 1283.87c509.98,116.9 1427.22,102.35 1834.53,243.34 237.16,82.08 312.78,372.58 326.96,710.86 21.51,512.89 -32.01,1202.94 -47.04,1743.91 -13.39,482.08 -90.94,721.56 -532.66,842.48 -306.62,83.92 -1482.06,353.45 -1644.58,445.96z"/>
  <path class="fil3" d="M18447.53 4434.71c208.06,-15.86 988.79,-192.09 1169.08,-271.35l16.31 -2606.13 -1.37 -1345.36 -3.9 -112.82c-227.96,-16.02 -1119.23,-170.69 -1234.85,-58.6l58.59 20.16 -3.86 4374.09z"/>
  <path class="fil4" d="M17159.25 248.49l-5.91 1286.53 511.46 -11.9c127.47,238.63 42.57,1065.84 29.14,1396.35l-219.69 -49.12 -204.35 -6.74 1.6 1190.69 -83.46 17.91c152.42,121.87 977.8,256.24 1259.48,362.49l3.86 -4374.09 -58.59 -20.16c-179.06,-10.77 -1053.77,143.16 -1233.55,208.03z"/>
  <path class="fil5" d="M10144.94 3504.79c35.95,53.12 13.39,16.62 59.67,68.65 123.25,138.56 74.21,47.03 115.15,168.64l-628.3 -20.36 -101.17 -284.63c-2.64,-15.31 -11.92,-17.68 -18.78,-25.8l5.94 126.02 0.75 175.04 -43.08 302 -172.16 0 4.32 283.34c822.58,-5.75 1649.41,-1.35 2473.86,-1.35 787.37,0 1689.17,111.51 1872.34,-624.75 -8.65,8.94 -19.67,19.52 -27.81,24.84l-534.32 55.7c82.33,-407.26 90.11,-370.28 24.61,-809.48l-50.04 -126.84c-90.76,-51.88 -56.53,-33.18 -95.02,-124.59l-150 -18.98c96.85,208.66 175.75,618.56 -8.33,763.94 -152.62,120.52 -635.83,69.18 -875.1,69.17 -617.51,-0.03 -1235.02,0.31 -1852.53,-0.53z"/>
  <path class="fil6" d="M16883.05 6280.14l1546.54 810.27c114.63,-228.38 54.91,-1069.88 18.93,-1361.49l-1596.59 -586.66c81.65,249.71 42.2,851.19 31.12,1137.87z"/>
  <path class="fil7" d="M15573.02 534.46c-95.76,246.41 -40.1,784.58 -40.1,1072.09l683.39 -28.53 253.7 25.18c54.3,-98.7 547.83,-69.02 683.33,-68.18l5.91 -1286.53 -1586.23 285.97z"/>
  <path class="fil8" d="M18448.52 5728.93c35.98,291.6 95.69,1133.11 -18.93,1361.49l185.58 22.04c21.42,-4.11 124.42,-41.62 149.32,-50.13l977.19 -313.66 10.2 -1339.56 -1303.35 319.82z"/>
  <path class="fil9" d="M17188.05 4072.22l83.46 -17.91 -1.6 -1190.69 -1409.33 -165.67 -4.43 996.4c39.04,157.81 1250.55,385.67 1331.9,377.87z"/>
  <path class="fil10" d="M16883.05 6280.14c11.07,-286.68 50.53,-888.16 -31.12,-1137.87 -140.04,-82.17 -1162.49,-467.88 -1327.35,-476.63l-4.6 914.21 1363.08 700.29z"/>
  <path class="fil11" d="M1001.86 1934.05c-27.55,87.45 -46.41,70.53 42.72,61.62l3449.84 7.1 464.77 10.93c-64.2,129.17 62.3,93.72 -227.01,121.05 -751.48,70.97 -2651.11,-41.42 -3557.7,35.09 380.08,68.44 3651.98,61.69 4169.11,27.5 241.72,-342.03 730.45,-1489.61 932.91,-1647.5 141.87,-58.25 422.8,-44.65 606.04,-11.99l-29.45 -49 -235.55 13.93 -180.65 -6.09 -9.85 -175 -490.81 13.65 -891.64 1601.83 -4042.73 -3.12z"/>
  <path class="fil12" d="M7650.88 1935.29l157.62 144.79c297.62,90.31 1364.45,48.87 1779.02,46.8l-0.74 -1630.54c405.26,-57.67 2096.66,-19.38 2723.38,-19.55 193.57,-0.05 699.44,-54.02 852.74,70.1l290.19 29.7c-46.12,-72.01 0.39,-20.16 -58.07,-75.26 -278.55,-262.64 -1431.6,-178.36 -1866.55,-178.36 -694.29,0 -1509.15,-38.84 -2188.72,7.48l2.85 1612.56 -1691.7 -7.69z"/>
  <path class="fil13" d="M236.15 2689.07l-2.27 -519.04c109.3,-67.14 62.2,-10.19 145.97,-50.31 95.37,-45.67 38.31,27.89 86.67,-66.93l-3.92 -1576.05 3538.7 -2.49 -4.75 -149.8 -3773.39 -0.58 2.18 1494.4 0.23 125.66c-168.5,0.55 -160.44,-40.81 -225.55,69.77l2.13 657.76 234.02 17.61z"/>
  <path class="fil14" d="M12829.21 5501.54c119.23,-13.23 33.4,-20.02 68.86,41.05 47.06,87.61 -6.99,175.18 -8.71,339.45 -1.92,181.38 38.75,213.63 -55.7,358.59 127.23,-28.82 32.08,-24.84 71.9,43.7l-16.06 474.84c61.79,21.54 49.79,-60.43 46.18,61.98 2.18,144.81 1.46,274.09 77.98,378.66 198.15,-182.29 -86.58,-306.36 159.32,-441.1l110.49 -54.8c-0.02,-58.26 5.08,-143.21 0.66,-198.15 -5.18,-64.16 -4.01,-48.23 -16.92,-104.15 -2.29,-9.92 -6.95,-20.08 -9.31,-29.24 -72.93,-282.99 73.35,-126.89 25.15,-606.09 -26.34,-261.87 -49.46,-12.45 -71.17,-273.2 143.2,2.59 173.51,21.23 272.76,-26.44l-136.91 -52.55c0,-193.38 -44.42,-561.31 49.41,-704.89l-460.96 0.8 -115.35 67.45 8.36 724.1z"/>
  <path class="fil15" d="M11561.14 5622.09c-54.72,72.16 34.61,23.52 -90,77.55 -56.25,24.39 -71.95,18.11 -135.04,21.11l-828.55 3.83 1.27 -478.8c228.04,-0.21 979.15,-90 1062.63,78.72l105.21 50.61c123.44,142.29 82.7,366.27 -5.62,490.56 -230.02,29.79 -905.86,55.82 -1094.15,-21.64 144.84,-133.72 1000.65,-63.97 1152.35,-39.98l-32 -222.38c-135.94,28.04 -42.81,-14.26 -136.1,40.42zm-1364.67 20.06l-14.33 656.19 -2.6 131.77c211.81,0 54.87,18.41 127.2,-77.98l-14.03 -167.88 -12.34 -218.73c97.04,49.12 50.99,58.53 231.68,85.4l10.54 -13.6c343.18,-47.72 875.54,47.94 1181.2,-56.25 172.18,-58.69 198.53,-183.22 209.66,-417.3 6.77,-142.25 15.98,-375.84 -83.3,-462.56 -256.78,-35.84 -1264.75,-71.08 -1483.04,-12.79l-40.08 801.48 -34.94 -247.75 -75.63 0z"/>
  <path class="fil12" d="M10147.72 1942.69c60.49,91.84 12.1,33.49 99.98,104.31 14.8,11.93 75.44,50.13 102.93,66.57 571.33,45.8 1258.54,12.81 1842.27,12.82 746.57,0 1136.58,65.15 854.34,-829.37 -140.64,-117.64 -83.15,-105.97 -290.29,-149.84 6.57,8.81 15.57,19.86 19.89,26.32 4.24,6.37 13.9,18.55 18.88,26.5 162.01,258.95 94.31,628.66 -46.68,705.36 -261.63,98.09 -2154.73,37.36 -2601.32,37.32z"/>
  <path class="fil16" d="M236.15 2689.07l203.61 89.05 -14.28 293.62 -9.45 234.4c59.48,-73.98 36.54,-13.6 28.81,-144.2 0.05,-129.58 8.45,-234.93 76.18,-342.49l109.73 476.04 392.48 1.8 0.35 -466.21c-473.73,0 -356.79,-5.11 -656.52,-200.9l-5.95 -421.08c156.38,-20.05 123.71,3.66 216.77,-78.14 25.57,-453.94 -71.64,-1203.7 7.6,-1599.53l3405.46 -13.54 10.34 -43.63 -3538.7 2.49 3.92 1576.05c-48.35,94.82 8.7,21.26 -86.67,66.93 -83.77,40.12 -36.67,-16.83 -145.97,50.31l2.27 519.04z"/>
  <path class="fil17" d="M8562.3 6073.35l2.54 -178.47c98.44,-96.22 435.98,-46.74 579.42,-46.63 199.5,0.15 399.01,0.28 598.52,0.28 -18.95,-169.42 58.38,-117.02 -528.77,-123.82l17.21 -129.26 -664.17 1.64 -2.18 -350.07 1244.13 -0.63 13.82 -183.87 -1438.07 1.73c-2.38,255.24 -4.18,775.74 55.81,995.9l121.76 13.2z"/>
  <path class="fil11" d="M6916.15 1898.89l323.98 641.76c43.62,97.66 97.12,160.79 24,204.84l309.17 596.38c15.56,-8.85 119.15,17.05 -2.28,-260.27 -41.13,-93.91 -72.64,-131.68 -99.34,-240.02l258.79 359.6 131.88 93.05c130.19,72.87 416.39,56.15 515.8,27.08 -19.16,-145.9 -149.59,-395.62 -244.66,-492.31 -384.71,18.42 -514.01,69.14 -673.96,-181.26 -137.96,-215.98 -739.14,-1494.93 -958.51,-1474.97 197.6,228.66 249.96,516.36 415.14,726.14z"/>
  <path class="fil15" d="M2351.98 6094.07l4.51 -813.94c208.86,-54.5 900.66,-59.36 1129.57,-18.29 85.17,18.1 166.24,2.09 162.13,71.3l49.16 45.88c100.52,128.23 16.55,362.54 101.43,770.91l104.57 -21.41c28.06,-304.73 57.78,-779.2 -54.37,-1034.68 -313.73,-39.48 -997.71,-54.56 -1309.78,-23.41 -438.05,43.72 -405.74,576.42 -352.42,1018.35l165.19 5.3z"/>
  <path class="fil17" d="M4425.77 5372.46c76.86,91.48 112.08,96.31 196.29,187.28 73.89,79.8 92.94,140.16 186.24,167.22 91.93,53.41 216.13,180.46 296.6,247.41 126.26,105.05 136.91,176.26 365.37,179.2 92.27,-27.33 42.16,19.07 54.7,-72.69l-26.53 -42.74c-256.35,-231.96 -663.85,-811.57 -934.82,-950.39l-287.11 1.44c-69.06,190.77 -42.76,923.43 60.31,1051.99l43.07 -612.52c5.62,-58.2 7.42,-53.33 19.81,-101.56l26.07 -54.65z"/>
  <path class="fil18" d="M4624.42 2756.12c172.13,-195.83 7.41,153.33 58.86,-58.08 3.04,-12.48 5.26,-18.32 5.3,-27.72 91.16,59.06 174.68,93.02 160.65,210.65 111.24,50.44 29.61,-29.87 37.07,77.5 10.41,149.81 -67.6,66.43 -71.71,376.36l311.47 -10.85c87.46,-114.63 290.2,-466.44 348.48,-619.82 -460.01,126.18 -650.15,-102.82 -1098.56,-105.9l-3129.36 -3.85c-284.81,8.54 -230.94,56.67 -246.26,85.47 442.6,-59.66 2426.15,-6.53 3180.15,-17.27 599.19,-8.54 369.61,-17.98 443.91,93.5z"/>
  <path class="fil19" d="M7808.49 2080.07c101.76,225.48 942.12,130.55 1374.93,132.47 625.18,2.77 516.1,71.73 501.35,-824.21 -4.23,-256.76 -43.56,-609.83 12.76,-851.44 390.49,-48.52 1977.65,-13.59 2573.53,-13.59 243.52,0 703.85,37.21 891.82,23.58 -153.3,-124.12 -659.17,-70.15 -852.74,-70.1 -626.72,0.16 -2318.13,-38.12 -2723.38,19.55l0.74 1630.54c-414.56,2.07 -1481.39,43.51 -1779.02,-46.8z"/>
  <path class="fil20" d="M4494.42 2002.77l-3449.84 -7.1c174.73,203.1 288.07,125.76 829.87,123.13 299.66,-1.45 599.31,-3.09 898.95,-4.59 312.68,-1.57 625.36,-4.07 938.04,-5.19 204.54,-0.74 782.97,41.79 782.97,-106.25z"/>
  <path class="fil13" d="M8167.34 4291.41l771.45 8.46c-47.39,-117.87 -74.77,-172.97 -126.39,-274.89 -61.92,-122.26 -56.2,-137.37 -153.87,-210.18 -87,69.48 -391.12,67.6 -511.81,18.45 -68.78,-28.02 -206.35,-203.71 -279.48,-257.74l300.1 715.89z"/>
  <path class="fil21" d="M2178.41 6463.01c207.85,107.09 1029.92,89.48 1337.85,70.13 320.87,-20.16 290.37,-102.76 320.86,-157.54l-125.67 4.49c-55.76,-113.81 7.9,14.66 -10.13,-71.52 -19.07,-91.22 24.11,6.79 -24.02,-70.99 -55.5,82.53 54.69,2.22 -66.44,48.35l-681.12 11.84c-694.67,-2.88 -387.29,113.18 -703.53,73.38 -61.21,50.23 -59.88,-98.5 -47.81,91.86z"/>
  <path class="fil22" d="M2026.76 5246.05l-9.62 467.67 96.73 0c22.65,192.95 82.14,453.33 -9.34,662.28 47.25,106.36 -67.71,33.04 73.88,87.02 -12.07,-190.36 -13.41,-41.63 47.81,-91.86 316.24,39.79 8.85,-76.26 703.53,-73.38l681.12 -11.84c121.13,-46.13 10.94,34.18 66.44,-48.35l-127.98 -33.9c-224.97,27.61 -421.61,24.33 -658.8,25.29 -248.93,1.03 -426.07,57.32 -538.54,-134.89l-165.19 -5.3c-53.32,-441.93 -85.64,-974.63 352.42,-1018.35 312.07,-31.15 996.04,-16.07 1309.78,23.41l-64.53 -50.63c-240.51,-30.28 -1136.33,-59.49 -1384.36,1.13 -178.56,43.64 -172.41,69.89 -252.05,200.77l-121.29 0.95z"/>
  <path class="fil23" d="M6608.02 5445.13c31.62,-283.92 224.36,-206.99 503.73,-205.07 204,1.41 408.09,-1.94 619.22,2.78l12.53 -219.05 -830.13 2.66 -181.83 63.28c-70.48,19.09 -39.87,-17.89 -133.7,47.01 -183.45,126.91 -156.18,385.34 -154.33,591.2 2.18,241.59 0.18,241.86 82.04,300.22 74.67,-119.46 58.67,-201.63 59.58,-343.55 0.55,-85.3 -7.44,-174.74 22.88,-239.47z"/>
  <path class="fil24" d="M7573.29 3341.86c44.64,129.56 201.5,385.21 279.64,509.77 56.91,90.72 96.06,162.98 143.11,250.73 61.97,115.54 64.47,161.55 171.3,189.04l-300.1 -715.89c73.14,54.03 210.7,229.72 279.48,257.74 120.69,49.15 424.8,51.03 511.81,-18.45l-92.14 -205.6c-188.13,2.71 -442.87,39.1 -574.24,-58.24 -2.15,-1.58 -144.03,-137.06 -153.23,-147.9 -64.86,-76.34 -68.79,-93.47 -108.46,-201.9l-258.79 -359.6c26.7,108.34 58.21,146.11 99.34,240.02 121.43,277.33 17.84,251.42 2.28,260.27z"/>
  <path class="fil13" d="M446.12 3694.16l-8.65 186.53c-9.02,182.95 12.55,163.16 -87.33,216.65 -62.49,-27.83 -94.76,47.88 -101.73,-216.65l-22.34 -64.57 9.6 479.1 789.53 5.44 -0.64 -412.27 -400.83 -8.02c-41.24,-69.12 -69.28,-191.34 -90.62,-265.27 -29.19,-101.11 -65.52,-180.15 -26.83,-249.54l-60.16 328.59z"/>
  <path class="fil1" d="M10136.29 2999.37l-35.17 314.53 -375.44 -1.2 -102.2 -485.43 -39.92 -27.73 -9.01 269.89 -10.13 265.59 7.08 76.27c6.86,8.13 16.14,10.5 18.78,25.8l101.17 284.63 628.3 20.36c-40.94,-121.61 8.1,-30.08 -115.15,-168.64 -46.28,-52.03 -23.72,-15.53 -59.67,-68.65l27.41 -826.01c-55.81,0 -44.02,-13.18 -32,42.27l-4.06 278.32z"/>
  <path class="fil25" d="M8366.14 6342.9c-31.44,152.54 12.61,141.42 -133.57,141.42 29.51,76.33 -12.19,26.23 51.76,55.27l1524.31 -3.52 17.65 -298.96 -408.62 -18.62c-46.31,139.27 27.76,46.19 -78.34,126.34 -288.95,-6.11 -762.97,114.91 -973.19,-1.92z"/>
  <path class="fil26" d="M10350.62 2113.58c70.53,85.77 -61.65,11.71 99.64,78.58 102.91,42.67 1686.28,18.28 1820.8,18.28 283.64,0.01 739.56,59.26 883.32,-133.53 58.28,-78.14 195.12,-638.52 -107.15,-779.89 282.24,894.52 -107.77,829.37 -854.34,829.37 -583.73,-0.01 -1270.94,32.98 -1842.27,-12.82z"/>
  <path class="fil27" d="M6406.11 6263.31c-0.44,115.24 34.17,134.41 -69.1,124.4 81.21,129 -13.6,42.62 128.96,105.31 145.69,64.06 1080.3,41.16 1265.79,41.36l9.07 -311.34 -202.22 -1 0.18 77.59 -347.25 29.92 -484.73 -16.74c-119.75,-104.47 6.82,-21.05 -116.83,-9.49 -100.82,9.42 -115.86,2.94 -183.87,-40z"/>
  <path class="fil15" d="M547.06 5460.74l22.56 -183.02c255.58,-64.61 796.82,-36.48 1105.26,-29.66l5.32 -175.32c-230.95,3.45 -989.31,-41.46 -1141.62,62.63 -211.56,144.55 -195.28,842.2 -71.19,954.21 119.19,-185.98 8.77,-405.67 79.67,-628.84z"/>
  <path class="fil28" d="M5581.92 5464.81l64.49 0c23.91,198.43 72.44,380.59 40.71,574.64 -64.25,65.68 58.53,62.11 -102.83,46.14l-59.32 -4.7c-12.54,91.75 37.58,45.35 -54.7,72.69 -228.46,-2.94 -239.1,-74.14 -365.37,-179.2 -80.47,-66.95 -204.67,-194 -296.6,-247.41 129.85,231.78 404.26,531.54 635.57,678.81l383.05 -24.89 42.16 -257.7c-110.66,-25.28 -42.1,12.97 -116.58,-39.44l-33.24 -982.04 146.57 -33.08c-0.8,-0.74 -41.38,-194.46 -211.63,15.45 -78.31,96.55 -76.52,254.3 -72.27,380.74z"/>
  <path class="fil29" d="M15860.57 2697.95l1409.33 165.67 204.35 6.74 201.27 28.72 -0.03 -259.29c-430.79,-27.66 -1417.7,-15.37 -1814.93,58.16z"/>
  <path class="fil11" d="M275.96 5129.64c-62.59,122.94 -83.22,518.9 -65.6,695.2 149.33,0 95.34,-10.01 120,174.2 10.15,75.77 -1.27,145.37 9.02,196.94 159.03,127.02 4.76,47.37 167.1,87.38 59.03,-75.68 38.41,-53.63 40.86,-134.79l-0.28 -687.83c-70.9,223.17 39.52,442.86 -79.67,628.84 -124.1,-112.01 -140.38,-809.66 71.19,-954.21 152.31,-104.09 910.67,-59.18 1141.62,-62.63l4.36 -55.46c-249.58,3.37 -499.27,-1.53 -748.56,1.17 -346.88,3.75 -392.97,93.58 -660.03,111.19z"/>
  <path class="fil30" d="M1169.07 6332.36l-496.41 4.02 29.76 15.76c-69.96,48.4 -5.34,57.61 -279.88,39.6 -43.12,-55.95 -19.22,-19.62 -69.14,-101.46l-31.33 108.73c73.11,118.83 110.22,117.12 271.57,130.69l1079.9 5.71 6.54 -301.52 -197.01 -1.93 0.28 73.36 -314.28 27.04z"/>
  <path class="fil26" d="M4092.77 5296.51l-1.71 682.5c163.17,0 78.83,-25.89 114.35,133.08 5.62,25.18 1.67,168.3 1.36,200.96 -75.5,92.37 4.38,29.27 -115.19,68.3l4.28 126.03 86.16 0 59.74 -170.09c86.41,103.18 -11.53,54.63 110.26,72.66 45.8,-210.85 0.74,-31.07 63.01,-109.73l10.73 -927.77 -26.07 54.65c-12.4,48.23 -14.2,43.36 -19.81,101.56l-43.07 612.52c-103.07,-128.56 -129.37,-861.21 -60.31,-1051.99l287.11 -1.44 -27.66 -60.22 -315.32 5.72 -26.86 260.28 -101 2.96z"/>
  <path class="fil31" d="M4414.82 3616.38l-107.46 238.57c-66.28,146.26 -141.11,197.16 -200.44,351.88l-6.43 103.85 514.29 -14.8 162.61 -338.64 -317.99 3.08c-8.93,-144.09 52,-344.09 -5.25,-344.33l-39.33 0.39z"/>
  <polygon class="fil32" points="8234.32,5299.56 8326.38,5299.56 8366.2,5032.46 9824.09,5028.93 9822.39,4904.5 8237.28,4904.03 "/>
  <path class="fil33" d="M10162.03 6298.34l20.11 0 14.33 -656.19c-6.91,-227.14 34.56,-444.81 120.35,-612.9 269.44,-37.06 1216.7,-32.41 1475.91,21.64 -59.72,-105.36 13.56,-63.53 -142.1,-111.12 -216.56,-66.19 -1223.82,-55.48 -1483.19,-6.7l-5.4 1365.27z"/>
  <path class="fil22" d="M13484.65 5466.64l-2.99 -225.87 260.76 2.54c50.56,-174.75 -35.45,-395.94 -103.35,-530.22l-241.92 -3.89c-93.83,143.58 -49.41,511.51 -49.41,704.89l136.91 52.55z"/>
  <path class="fil30" d="M12531.9 5255.07c116.65,22.26 32.67,-37.83 92.26,41.8l-6.68 191.87 211.73 12.81 -8.36 -724.1 115.35 -67.45 -390.09 -0.2c-49.7,131.14 -16.1,124.2 -31.58,276.58 -23.01,226.45 -4.26,46.15 -65.16,193.21 104.96,0.6 22.32,-18.62 82.53,75.48z"/>
  <path class="fil34" d="M8234.32 5299.56l1.31 682.41 92.84 0c9.6,138.12 85.49,406.88 -86.66,406.88l-9.26 95.47c146.18,0 102.13,11.12 133.57,-141.42l42.35 -227.12c3.49,120.76 -43.38,90.23 157.69,98.67l-3.87 -141.11 -121.76 -13.2c-59.99,-220.16 -58.19,-740.66 -55.81,-995.9l1438.07 -1.73 1.27 -33.59 -1457.89 3.52 -39.81 267.11 -92.06 0z"/>
  <path class="fil35" d="M5498.43 6038.15l26.53 42.74 59.32 4.7 -2.36 -620.78c-4.24,-126.44 -6.04,-284.19 72.27,-380.74 170.25,-209.91 210.82,-16.19 211.63,-15.45l3.25 1054.57 -42.16 257.7 -383.05 24.89c41.12,66.04 34.48,61.86 85.86,128.11l345.35 -10.81c38.7,-416.17 73.61,-1205.52 13.89,-1618.41l-324.79 17.04c-56.18,332.35 26.86,975.43 -65.74,1116.43z"/>
  <path class="fil36" d="M13125.92 2815.79c117.01,55.69 86.75,30.54 161.93,136.52 76.92,108.44 27.59,110.3 155.78,160.19l316.15 0 -26.3 -387.82 -702.58 -33.48c38.49,91.41 4.25,72.71 95.02,124.59z"/>
  <path class="fil37" d="M13175.96 2942.63c114.43,150.29 150.54,353.18 167.44,582.59 155.84,9.36 226.34,29.76 347.66,-26.18l59.06 -39 9.67 -347.54 -316.15 0c-128.19,-49.89 -78.86,-51.75 -155.78,-160.19 -75.18,-105.98 -44.92,-80.83 -161.93,-136.52l50.04 126.84z"/>
  <path class="fil32" d="M2026.76 5246.05l121.29 -0.95c79.64,-130.88 73.49,-157.13 252.05,-200.77 248.03,-60.62 1143.85,-31.41 1384.36,-1.13 -89.52,-136.5 -317.36,-134.4 -462.27,-138.96 -605.6,-19.05 -1209.29,-91.71 -1295.44,341.8z"/>
  <path class="fil26" d="M6476.86 5170.45l-66.68 161.4 -120.68 16.46 -13.89 343.09 76.95 0 53.54 571.92c68.01,42.94 83.05,49.42 183.87,40 123.66,-11.56 -2.92,-94.98 116.83,9.49l52.2 -67.61c-69.5,-49.88 -71.98,-35.68 -147.56,-91.63l-3.43 -708.44c-30.31,64.73 -22.32,154.17 -22.88,239.47 -0.9,141.92 15.09,224.09 -59.58,343.55 -81.86,-58.37 -79.87,-58.63 -82.04,-300.22 -1.85,-205.86 -29.12,-464.29 154.33,-591.2 93.84,-64.9 63.22,-27.92 133.7,-47.01l181.83 -63.28c-188.96,5.98 -346.42,-0.26 -436.52,144z"/>
  <path class="fil38" d="M6294.18 5202.92l182.68 -32.47c90.11,-144.26 247.57,-138.03 436.52,-144l830.13 -2.66c-23.81,-191.47 48.05,-72.12 -84.48,-119.73 -271.39,0 -552.06,-7.06 -822.26,-0.09 -339.01,8.75 -465.51,38.24 -542.59,298.96z"/>
  <path class="fil30" d="M4654.39 3209.87l-200.24 406.12c57.25,0.24 -3.68,200.24 5.25,344.33l317.99 -3.08c86.48,-129.98 129.96,-197.52 196.27,-343.08l-333.05 10.89c-3.77,-167.72 -1.12,-157.21 39.84,-292.94 27.47,-91.01 65.35,-85.44 12.23,-146.06l-38.28 23.82z"/>
  <path class="fil39" d="M444.84 3161.94c84.35,67.22 40.36,13.38 86.44,109.09l99.71 340.59 392.57 2.13 -0.34 -316.46 -392.48 -1.8 -109.73 -476.04c-67.72,107.56 -76.13,212.91 -76.18,342.49z"/>
  <path class="fil40" d="M416.03 3306.14l24.86 30.63 3.45 212.86 1.78 144.53 60.16 -328.59c-38.68,69.39 -2.36,148.43 26.83,249.54 21.35,73.93 49.38,196.15 90.62,265.27l400.83 8.02 -1 -274.65 -392.57 -2.13 -99.71 -340.59c-46.08,-95.71 -2.09,-41.87 -86.44,-109.09 7.72,130.6 30.66,70.22 -28.81,144.2z"/>
  <path class="fil33" d="M275.96 5129.64c267.06,-17.61 313.16,-107.44 660.03,-111.19 249.29,-2.7 498.98,2.2 748.56,-1.17 -16.69,-140.19 -4.82,-64.19 -44.61,-113.42 -259.55,-0.78 -523.54,-4.7 -782.63,-1.02 -276.77,3.92 -528.98,17.19 -581.35,226.8z"/>
  <path class="fil14" d="M8566.39 3609.21c-51.14,-121.98 -90.83,-219.92 -188.25,-287.91 -99.41,29.07 -385.61,45.79 -515.8,-27.08l-131.88 -93.05c39.67,108.43 43.61,125.56 108.46,201.9 9.2,10.84 151.08,146.32 153.23,147.9 131.37,97.34 386.11,60.95 574.24,58.24z"/>
  <path class="fil14" d="M4692.68 3186.05c53.12,60.62 15.23,55.05 -12.23,146.06 -40.95,135.73 -43.61,125.22 -39.84,292.94l333.05 -10.89 152.4 -290.18 -311.47 10.85c4.11,-309.93 82.12,-226.55 71.71,-376.36 -7.46,-107.37 74.16,-27.07 -37.07,-77.5l-156.55 305.08z"/>
  <path class="fil41" d="M13713.48 3671.58l36.64 -211.54 -59.06 39c-121.32,55.94 -191.82,35.54 -347.66,26.18 -16.9,-229.42 -53,-432.3 -167.44,-582.59 65.49,439.2 57.72,402.22 -24.61,809.48l534.32 -55.7c8.14,-5.32 19.16,-15.9 27.81,-24.84z"/>
  <path class="fil42" d="M9583.57 2799.54l39.92 27.73 100.2 96.23c110.12,107.83 53.35,75.87 412.6,75.87l4.06 -278.32c-160.3,0 -486.46,53.34 -566.34,-81.14 -270.58,-1.19 -83.18,-15.8 -116.38,63.25 123.35,163.59 2.24,41.01 125.95,96.38z"/>
  <path class="fil28" d="M10196.47 5642.15l75.63 0 34.94 247.75 40.08 -801.48c218.28,-58.29 1226.25,-23.05 1483.04,12.79l-37.43 -50.31c-259.21,-54.05 -1206.47,-58.71 -1475.91,-21.64 -85.79,168.08 -127.26,385.76 -120.35,612.9z"/>
  <path class="fil22" d="M10136.29 2999.37c-359.25,0 -302.48,31.96 -412.6,-75.87l-100.2 -96.23 102.2 485.43 375.44 1.2 35.17 -314.53z"/>
  <path class="fil22" d="M11567.18 5575.85l-6.04 46.23c93.28,-54.68 0.15,-12.38 136.1,-40.42l32 222.38c-151.7,-24 -1007.51,-93.74 -1152.35,39.98 188.3,77.46 864.13,51.43 1094.15,21.64 88.32,-124.29 129.06,-348.28 5.62,-490.56l-7.05 117.16c-76.79,35.81 -56.74,29.57 -102.43,83.58z"/>
  <path class="fil15" d="M5869.07 6123.19l-3.25 -1054.57 -146.57 33.08 33.24 982.04c74.48,52.42 5.92,14.17 116.58,39.44z"/>
  <path class="fil43" d="M8564.84 5894.88c315,-31.04 974.18,43.58 1222.32,-36.95l4.11 -240.39 -560.05 -22.1 -17.21 129.26c587.14,6.8 509.81,-45.6 528.77,123.82 -199.52,0 -399.02,-0.12 -598.52,-0.28 -143.44,-0.11 -480.98,-49.59 -579.42,46.63z"/>
  <path class="fil44" d="M17675.5 2639.79l0.03 259.29 -201.27 -28.72 219.69 49.12c13.43,-330.5 98.32,-1157.72 -29.14,-1396.35l-511.46 11.9c-135.5,-0.84 -629.03,-30.53 -683.33,68.18l1204.02 -32.41 1.46 1069z"/>
  <path class="fil45" d="M4398.68 3204.73c-7.12,94.02 -53.09,364.19 16.14,411.64l39.33 -0.39 200.24 -406.12c-74.51,-52.81 -53.51,37.05 -58.96,-174.91 -1.97,-77.02 7.18,-180.41 10.34,-259.15l-35.86 52.65c-3.68,5.89 -12.31,18.91 -16.74,26.12 -95.79,156.07 -140.26,209.64 -154.49,350.16z"/>
  <path class="fil18" d="M3593.27 5649.01l-6.54 289.95c127.74,40.25 80.65,-98.07 118.32,133.72 10.58,65.11 -12.7,94.74 -27.76,164.89 48.12,77.78 4.95,-20.23 24.02,70.99 18.03,86.18 -45.63,-42.29 10.13,71.52l125.67 -4.49 66.24 -247.09 -104.57 21.41c-84.88,-408.37 -0.9,-642.68 -101.43,-770.91l-11.07 267.2 -93.01 2.8z"/>
  <path class="fil46" d="M12531.9 5255.07c-60.2,-94.1 22.43,-74.88 -82.53,-75.48 60.89,-147.06 42.15,33.24 65.16,-193.21 15.48,-152.38 -18.12,-145.43 31.58,-276.58l-157.78 10.1c-28.06,66.99 -16.43,78.08 -41.68,140.98 -52.7,131.25 -106.51,110.07 -58.15,379.61l243.41 14.58z"/>
  <path class="fil47" d="M6871.82 2036.92c80.93,0 49.31,-26.84 44.32,-138.03 -165.18,-209.78 -217.53,-497.48 -415.14,-726.14l-19.99 -53.89 -52.78 55.11c11.28,136.71 2.25,87.34 85.57,223.89 58.49,95.87 78.14,144.41 123.95,230.48 68.49,128.67 165.87,297.8 234.06,408.57z"/>
  <path class="fil48" d="M4074.91 3769.46c-9.97,80 -20.84,157.73 -19.84,240.45 0.2,16.49 5.5,97.05 8.94,111.19 21.97,89.98 4.37,32.91 42.91,85.73 59.33,-154.72 134.16,-205.62 200.44,-351.88 -75.9,-72.42 -19.24,25.16 -52.19,-85.61 -2.57,-8.66 -10.79,-100.17 -10.93,-111.07 -1.13,-87.16 12.53,-159.89 26.02,-242.18 -39.5,32.49 -30.34,13.65 -67.86,64.24 -20.27,27.32 -38.75,65.6 -56.61,103.21 -29.6,62.35 -54.12,115.48 -70.88,185.91z"/>
  <path class="fil49" d="M8366.14 6342.9c210.22,116.83 684.24,-4.19 973.19,1.92 106.09,-80.14 32.03,12.93 78.34,-126.34l-268.21 11.67c-26.7,74.22 97.7,56.42 -278.75,88.8 -366.97,31.56 -273.15,-49.05 -310.13,-97.39l5.61 -7.11c-201.07,-8.44 -154.19,22.09 -157.69,-98.67l-42.35 227.12z"/>
  <path class="fil50" d="M4624.42 2756.12l-18.64 19.68c-3.16,78.75 -12.32,182.13 -10.34,259.15 5.45,211.96 -15.55,122.1 58.96,174.91l38.28 -23.82 156.55 -305.08c14.03,-117.63 -69.48,-151.59 -160.65,-210.65 -0.04,9.41 -2.26,15.24 -5.3,27.72 -51.45,211.41 113.27,-137.75 -58.86,58.08z"/>
  <path class="fil5" d="M12828.02 5615.72l-67.16 32.88c-8.37,147 -75.51,539.88 72.81,592.03 94.44,-144.96 53.77,-177.2 55.7,-358.59 1.73,-164.27 55.77,-251.84 8.71,-339.45l3.42 83.78 -73.48 -10.65z"/>
  <path class="fil51" d="M4092.77 5296.51l101 -2.96 26.86 -260.28 315.32 -5.72c-34.18,-55.94 -39.66,-68.05 -79.1,-119.88l-358.25 -1.28 -5.83 390.12z"/>
  <polygon class="fil52" points="226.06,3816.12 248.4,3880.69 437.47,3880.69 446.12,3694.16 444.34,3549.63 283.5,3549.27 244.21,3332.25 234.46,3327.73 "/>
  <path class="fil41" d="M4100.49 4310.68l6.43 -103.85c-38.54,-52.82 -20.93,4.25 -42.91,-85.73 -3.44,-14.13 -8.74,-94.7 -8.94,-111.19 -1.01,-82.72 9.86,-160.45 19.84,-240.45l-284.56 518.87 310.14 22.34z"/>
  <path class="fil50" d="M9367.91 3069.43l206.64 0 9.01 -269.89c-123.71,-55.38 -2.6,67.21 -125.95,-96.38l-97.06 -32.83 7.35 399.1z"/>
  <path class="fil53" d="M2104.53 6376c91.47,-208.96 31.99,-469.33 9.34,-662.28l-96.73 0c15.3,232.52 -37.73,513.53 87.4,662.28z"/>
  <path class="fil54" d="M6871.82 2036.92l392.3 708.57c73.13,-44.05 19.62,-107.18 -24,-204.84l-323.98 -641.76c4.98,111.19 36.61,138.03 -44.32,138.03z"/>
  <path class="fil36" d="M4270.26 3416.09c-13.49,82.29 -27.15,155.02 -26.02,242.18 0.14,10.9 8.36,102.41 10.93,111.07 32.95,110.76 -23.71,13.19 52.19,85.61l107.46 -238.57c-69.22,-47.46 -23.26,-317.62 -16.14,-411.64 -89.37,64.64 -106.84,95.67 -128.42,211.36z"/>
  <path class="fil50" d="M237.88 2991.02c95.39,101.35 46.43,-104.98 73.17,80.72l114.43 0 14.28 -293.62 -203.61 -89.05 1.74 301.95z"/>
  <path class="fil53" d="M5584.29 6085.6c161.36,15.96 38.58,19.54 102.83,-46.14 31.73,-194.05 -16.79,-376.22 -40.71,-574.64l-64.49 0 2.36 620.78z"/>
  <path class="fil55" d="M6337.01 6387.71c103.27,10.02 68.66,-9.15 69.1,-124.4l-53.54 -571.92 -76.95 0c18.81,303.26 8.85,412.31 61.39,696.32z"/>
  <path class="fil5" d="M12829.43 6334.36c-107.77,60.7 -68.68,-11.69 -79,171.66 -3.27,58.12 4.85,163.22 3.87,234.25l135.22 18.91 16.06 -474.84c-40.27,100.56 35.91,51.41 -76.15,50.03z"/>
  <polygon class="fil56" points="9362.95,4014.34 9535.11,4014.34 9578.19,3712.34 9365.55,3712.34 "/>
  <path class="fil57" d="M322.06 6399.01l31.33 -108.73 -14.01 -94.3c-10.29,-51.57 1.13,-121.17 -9.02,-196.94 -24.66,-184.21 29.33,-174.2 -120,-174.2 16.87,216.61 -24.29,449.39 111.7,574.17z"/>
  <path class="fil53" d="M672.66 6336.38l496.41 -4.02 0 -99.52 -516.15 -8.96c8.23,112.92 -21.46,45.05 19.74,112.49z"/>
  <path class="fil58" d="M10292.71 6184.26l14.03 167.88c-72.33,96.38 84.61,77.98 -127.2,77.98l52.26 103.72 77.22 -80.04c93.71,-90.97 53.84,-2.65 204.28,-67.9l9.29 -348.56 -10.54 13.6c-8.5,58.39 2.18,41.31 -21.23,105.25 -47.47,129.62 -19.43,40.31 -56.74,86.56 -31.19,-13.31 -115.92,-44.12 -141.36,-58.48z"/>
  <polygon class="fil59" points="9368.87,3335.01 9564.43,3335.01 9574.56,3069.43 9367.91,3069.43 "/>
  <path class="fil0" d="M234.46 3327.73l9.75 4.52 196.68 4.52 -24.86 -30.63 9.45 -234.4 -114.43 0c-26.74,-185.7 22.22,20.64 -73.17,-80.72l-3.42 336.71z"/>
  <path class="fil55" d="M9149.45 6230.15l-588.88 -8.59c36.98,48.34 -56.85,128.95 310.13,97.39 376.45,-32.38 252.06,-14.59 278.75,-88.8z"/>
  <path class="fil60" d="M339.38 6195.98l14.01 94.3c49.92,81.84 26.02,45.51 69.14,101.46 274.54,18.01 209.92,8.8 279.88,-39.6l-29.76 -15.76c-41.2,-67.44 -11.52,0.43 -19.74,-112.49 -9.04,-7.6 -84.91,-61.93 -105.58,-75.32 -2.46,81.16 18.17,59.11 -40.86,134.79 -162.34,-40.01 -8.06,39.64 -167.1,-87.38z"/>
  <path class="fil61" d="M16216.32 1578.02l-683.39 28.53c0,-287.51 -55.65,-825.68 40.1,-1072.09 -115.85,56.75 -67.07,232.71 -66.95,502.11 0.07,192.23 -13.9,390.02 16.23,579.11 192.13,27.23 544.63,28.26 694.01,-37.66z"/>
  <path class="fil62" d="M4091.57 6381.35c119.57,-39.03 39.69,24.07 115.19,-68.3 0.32,-32.67 4.26,-175.79 -1.36,-200.96 -35.52,-158.96 48.82,-133.08 -114.35,-133.08l0.51 402.34z"/>
  <path class="fil36" d="M10292.71 6184.26c25.44,14.36 110.18,45.17 141.36,58.48 37.31,-46.26 9.28,43.06 56.74,-86.56 23.41,-63.93 12.74,-46.86 21.23,-105.25 -180.69,-26.87 -134.64,-36.28 -231.68,-85.4l12.34 218.73z"/>
  <polygon class="fil63" points="9368.26,3537.3 9577.44,3537.3 9571.51,3411.28 9564.43,3335.01 9368.87,3335.01 "/>
  <path class="fil62" d="M8241.82 6388.85c172.15,0 96.26,-268.76 86.66,-406.88l-92.84 0 6.18 406.88z"/>
  <polygon class="fil55" points="7191.54,6329.55 7191.54,6223.55 6759.01,6245.19 6706.81,6312.8 "/>
  <path class="fil47" d="M6617.54 502.78l235.55 -13.93 -59.72 -152.03 -224.27 -11.48c11.04,108.86 10.82,99.98 48.44,177.44z"/>
  <path class="fil64" d="M4095.86 6507.38c79.59,79.67 115.15,36.91 306.87,26.12l12.31 -233.27c-62.27,78.65 -17.21,-101.12 -63.01,109.73 -121.79,-18.04 -23.85,30.52 -110.26,-72.66l-59.74 170.09 -86.16 0z"/>
  <polygon class="fil63" points="444.34,3549.63 440.89,3336.77 244.21,3332.25 283.5,3549.27 "/>
  <polygon class="fil28" points="9365.55,3712.34 9578.19,3712.34 9577.44,3537.3 9368.26,3537.3 "/>
  <path class="fil62" d="M3549.32 6203.67l127.98 33.9c15.06,-70.15 38.34,-99.77 27.76,-164.89 -37.68,-231.79 9.42,-93.48 -118.32,-133.72l-37.41 264.71z"/>
  <path class="fil65" d="M437.47 3880.69l-189.07 0c6.97,264.53 39.25,188.82 101.73,216.65 99.89,-53.49 78.31,-33.7 87.33,-216.65z"/>
  <path class="fil5" d="M10513.3 6385.89c-150.45,65.25 -110.57,-23.07 -204.28,67.9l-77.22 80.04 -52.26 -103.72 2.6 -131.77 -20.11 0 20.01 228.44c119.91,44.67 172.91,16.14 320.93,10.82l10.33 -151.71z"/>
  <polygon class="fil22" points="7191.54,6329.55 7538.79,6299.63 7538.61,6222.04 7191.54,6223.55 "/>
  <polygon class="fil66" points="1169.07,6332.36 1483.34,6305.33 1483.07,6231.96 1169.07,6232.85 "/>
  <path class="fil67" d="M6617.54 502.78c-37.63,-77.46 -37.4,-68.58 -48.44,-177.44l-142.05 -3.65 9.85 175 180.65 6.09z"/>
  <path class="fil68" d="M3589.9 5491.18l74.63 0 -16.32 -158.05c4.11,-69.21 -76.97,-53.2 -162.13,-71.3l103.83 229.35z"/>
  <polygon class="fil69" points="6289.51,5348.3 6410.18,5331.85 6476.86,5170.45 6294.18,5202.92 "/>
  <polygon class="fil70" points="3589.9,5491.18 3593.27,5649.01 3686.29,5646.21 3697.36,5379.01 3648.2,5333.13 3664.52,5491.18 "/>
  <path class="fil71" d="M11567.18 5575.85c45.69,-54.01 25.64,-47.78 102.43,-83.58l7.05 -117.16 -105.21 -50.61 -4.27 251.36z"/>
  <path class="fil72" d="M12617.48 5488.73l6.68 -191.87c-59.6,-79.63 24.39,-19.54 -92.26,-41.8l22.52 159.02c18.96,79.05 -11.07,47.29 63.07,74.65z"/>
  <path class="fil72" d="M12828.02 5615.72l73.48 10.65 -3.42 -83.78c-35.46,-61.07 50.36,-54.28 -68.86,-41.05l-1.19 114.17z"/>
  <path class="fil73" d="M12829.43 6334.36c112.06,1.39 35.88,50.54 76.15,-50.03 -39.82,-68.54 55.33,-72.52 -71.9,-43.7l-4.24 93.72z"/>
 </g>
</svg>
