<?xml version="1.0" standalone="no"?>
<!DOCTYPE svg PUBLIC "-//W3C//DTD SVG 20010904//EN"
 "http://www.w3.org/TR/2001/REC-SVG-20010904/DTD/svg10.dtd">
<svg version="1.0" xmlns="http://www.w3.org/2000/svg"
 width="230.000000pt" height="96.000000pt" viewBox="0 0 230.000000 96.000000"
 preserveAspectRatio="xMidYMid meet">
<metadata>
Created by potrace 1.16, written by Peter Selinger 2001-2019
</metadata>
<g transform="translate(0.000000,96.000000) scale(0.100000,-0.100000)"
fill="#000000" stroke="none">
<path d="M1810 859 c-30 -8 -230 -49 -237 -49 -2 0 -3 -27 -3 -60 l0 -60 110
0 110 0 0 -44 0 -44 -90 -7 -90 -7 0 -58 c0 -47 3 -60 18 -64 55 -17 211 -59
232 -62 14 -2 50 2 80 9 l55 12 3 133 3 132 37 0 c70 0 75 -10 73 -150 -1 -68
-6 -130 -11 -140 -6 -10 -42 -24 -103 -37 l-94 -22 -99 29 c-102 31 -132 34
-196 24 l-38 -7 0 -51 0 -51 112 -60 c61 -33 130 -70 152 -82 l41 -23 172 55
c198 64 224 82 242 165 6 28 11 128 11 221 0 189 -9 228 -59 254 -15 7 -103
23 -196 34 -186 23 -184 23 -235 10z"/>
<path d="M30 745 c0 -69 -3 -85 -15 -85 -11 0 -15 -11 -15 -41 0 -36 2 -40 22
-37 20 3 23 -2 25 -37 2 -31 0 -35 -7 -20 -6 14 -9 1 -9 -47 l-1 -68 45 0 45
0 0 85 0 85 -30 0 c-37 0 -58 31 -34 51 13 10 14 27 9 96 l-7 83 181 0 c114 0
181 4 181 10 0 6 -72 10 -195 10 l-195 0 0 -85z"/>
<path d="M950 745 l0 -85 -87 0 c-78 -1 -85 -2 -63 -13 14 -8 59 -13 105 -13
l80 1 0 85 0 85 193 0 c156 0 189 2 175 13 -12 8 -71 12 -210 12 l-193 0 0
-85z"/>
<path d="M700 685 c0 -3 9 -23 20 -45 11 -22 20 -47 20 -55 0 -9 19 -52 43
-96 l42 -79 48 0 c26 0 47 3 47 6 0 3 -19 41 -42 85 -40 72 -46 79 -74 79 -25
0 -36 8 -58 40 -14 22 -26 44 -26 49 0 5 -4 13 -10 16 -5 3 -10 3 -10 0z"/>
<path d="M969 545 c-1 -38 -2 -39 -9 -10 -6 22 -8 9 -9 -47 l-1 -78 158 1
c262 1 292 12 292 115 0 52 -1 54 -27 54 -16 0 -39 3 -52 7 -21 5 -22 4 -12
-16 16 -29 6 -57 -22 -65 -12 -3 -73 -6 -134 -6 l-113 0 0 39 c0 37 -2 39 -35
43 -35 4 -35 4 -36 -37z"/>
<path d="M1250 350 c0 -23 4 -30 20 -30 17 0 20 -7 20 -49 0 -30 5 -51 13 -54
10 -4 10 -6 0 -6 -7 -1 -13 -13 -13 -27 0 -21 4 -25 20 -21 13 3 20 0 20 -10
0 -8 -5 -11 -11 -7 -7 4 -10 -1 -7 -12 4 -25 22 -21 26 6 2 11 7 20 12 20 5 0
9 28 9 62 0 35 5 64 10 66 6 2 11 10 11 18 0 8 5 14 10 14 6 0 10 14 10 30 l0
30 -75 0 -75 0 0 -30z"/>
</g>
</svg>
