<?xml version="1.0" encoding="UTF-8"?>
<!DOCTYPE svg PUBLIC "-//W3C//DTD SVG 1.1//EN" "http://www.w3.org/Graphics/SVG/1.1/DTD/svg11.dtd">
<!-- Creator: CorelDRAW 2020 (64-Bit) -->
<svg xmlns="http://www.w3.org/2000/svg" xml:space="preserve" width="229.447mm" height="115.704mm" version="1.1" style="shape-rendering:geometricPrecision; text-rendering:geometricPrecision; image-rendering:optimizeQuality; fill-rule:evenodd; clip-rule:evenodd"
viewBox="0 0 22944.72 11570.43"
 xmlns:xlink="http://www.w3.org/1999/xlink"
 xmlns:xodm="http://www.corel.com/coreldraw/odm/2003">
 <defs>
  <style type="text/css">
   <![CDATA[
    .fil0 {fill:#174940}
    .fil1 {fill:#215127}
    .fil2 {fill:#3F4C11}
    .fil3 {fill:white}
   ]]>
  </style>
 </defs>
 <g id="Plan_x0020_1">
  <metadata id="CorelCorpID_0Corel-Layer"/>
  <g id="_1469266575520">
   <path class="fil0" d="M11183.22 9120.18c-27.56,-55.7 -102.1,-127.39 -210.14,-370.78 -479.58,-1080.42 -657.56,-2261.97 -271.34,-3398.65 157.03,-462.15 399.81,-841.47 692.66,-1197.46 158.29,-192.42 316.39,-358.09 498.05,-529.21 24.68,-23.24 43.13,-48.34 68.44,-70.97l153.54 -142.44c29.97,-26.06 45.27,-40.36 76.66,-71.1l461.93 -417.49c44.54,-36.25 110.94,-116.88 172.11,-130.8 -49.68,68.99 -543.81,556.26 -601.27,613.51 -151.9,151.36 -427.16,505.39 -540.49,667.54 -535.9,766.75 -840.71,1772.24 -860.92,2764.03 -5.09,250.14 2.64,578.02 89.94,814.46 36.97,100.11 88.22,97.57 199.56,75.08 525.45,-106.14 1057.85,-331.91 1486.15,-634.89 223.58,-158.15 463.02,-358.91 648.85,-559.29 110.02,-118.62 171.54,-176.79 282.48,-317.29 45.33,-57.41 88.56,-109.77 133.21,-170.74 84.11,-114.87 164.46,-231.67 246.2,-361.92 317.96,-506.64 565.29,-1114.48 723.17,-1692.82 179.82,-658.65 257.6,-1456.65 149.53,-2162.52 -75.06,-490.34 -231.36,-959.57 -407.78,-1408.71 -27.9,-71.04 -64.64,-144.46 -89.24,-214.74 -27.17,-77.63 -49.71,-157.76 -100.29,-202.98 -4.78,5.49 -4.18,3.51 -9.55,14.76 -20,41.9 -121.13,433.55 -238.75,681.04 -51.41,108.16 -119.97,207.05 -183.23,293.62 -118.12,161.62 -302.83,369.71 -445.72,499.24 -275.72,249.94 -468.03,403.2 -807.64,622.02 -531.54,342.5 -919.33,514.36 -1461.43,913.74 -137.45,101.26 -406.99,337.81 -502.78,450.6 -18.97,22.33 -38.14,35.77 -56.53,58.2 -230.03,280.56 -354.16,432.22 -519.33,787.06 -339.04,728.36 -396.89,1670.64 -233.64,2454.57 127.49,612.28 400.12,1264.5 780,1710.23 18.45,21.65 39.97,43.67 57.05,66.23l288.74 302.92c23.42,21.88 45.06,36.16 66.49,57.08 44.05,43 214.75,194.56 265.31,208.87z"/>
   <path class="fil1" d="M9539.11 6628.92c4.28,-26.48 -49.29,-269.69 -56,-334.98 -77.08,-750.43 27.3,-1514.43 371.35,-2184.58 20.31,-39.55 59.99,-97.95 72.05,-135.04l-152.59 -230.26c-257.06,-409.03 -505.02,-792.59 -752.7,-1211.59 -40.85,-69.1 -279.92,-453.76 -265.24,-516.26 48.18,-14.49 46.62,21.23 103.66,78.04l640.44 781.38c90.32,114.83 601.28,778.23 638.79,795.18 39.93,-63.11 77.87,-109.62 120.71,-167.28 95.19,-128.16 311.44,-350.52 434.53,-445.01 126.43,-97.04 191.3,-157.76 335.51,-247.74 60.3,-37.62 115.79,-73.52 177.73,-110.1 35.27,-20.84 167.97,-86.32 182.34,-112.89 -14.92,-32.35 -112.55,-108.53 -145.25,-133.64 -160.17,-122.99 -292.64,-241.15 -484.84,-353.25 -511.88,-298.53 -987.11,-515.26 -1577.16,-666.67 -149.24,-38.3 -808.13,-207.56 -931.41,-192.86 -41.75,63.62 -96.28,636.82 -105.89,754.42 -63.06,771.22 -10.11,1636.62 187.41,2367.72 121.72,450.54 277.36,880.24 476.53,1257.62 169.49,321.13 369.43,647.03 608.42,911.89 20.21,22.39 33.51,30.94 52.3,54.23 23.59,29.27 24.59,48.56 69.31,41.67z"/>
   <path class="fil2" d="M2652.07 10626.68c-16.91,-67.73 -3.91,-479.82 -3.85,-585.74 0.08,-128.65 -3.53,-163.14 129.54,-165.59 94.41,-1.73 169.01,31.78 207.7,81.87 92.89,120.24 152.35,500.42 -85.15,641.89 -57.44,34.21 -205.27,50.93 -248.24,27.57zm1265.16 928.89c42.93,-10 38.73,-86.63 1.07,-99.22 -79.42,-26.54 -126.02,-7.74 -267.69,-110.07 -127.09,-91.81 -355.31,-388.51 -460.95,-533.29 -20.9,-28.63 -69.24,-85.66 -81.08,-114.3 14.41,-15.4 89.2,-45.81 115.48,-63.53 335.31,-226.19 302.77,-599.8 37.92,-765.66 -188.16,-117.82 -351.95,-101.21 -599,-98.69 -116.85,1.2 -223.02,2.46 -336.61,2.04 -267.34,-0.99 -275.85,-33 -253.21,86.09 53.88,32.21 159.75,-2.82 182.32,72.17 27.26,90.59 23.38,1095.81 17.45,1227.47 -10.1,224.33 8.78,258.71 -92.38,282.88l-82.85 13.91c-37.09,10.62 -52.29,92.58 6.83,98.43 9.68,0.96 14.25,0.09 23.78,-0.61l329.77 -18.27c117.81,-0.16 271.71,22.92 385.81,18.96 6.4,-36.74 9.63,-58.81 -3.01,-96.41 -63.24,-13.44 -147.2,-6.38 -171.99,-58.23 -31.15,-65.15 -27.03,-617.33 -16.05,-652.83 50.37,-20.17 66.4,12.68 87.52,39.36l400.46 536.43c166.91,232.83 313.23,243.61 557.75,243.87l218.66 -10.5z"/>
   <path class="fil2" d="M4792.71 9874.28c197.57,-47.84 376.25,81.84 443.29,182.75 187.62,282.41 233.51,737.45 137.2,1051.08 -48.34,157.38 -136.9,300.44 -294.93,337.72 -181.24,42.76 -344.41,-44.3 -443.25,-180 -260.58,-357.74 -279.16,-1285.75 157.69,-1391.55zm-771.74 799.76c12.22,151.23 28.18,243.16 89.45,368.66 43.74,89.58 119.91,200.89 188.36,263.63 681.9,625.07 1577.34,32.59 1553.26,-657.07 -12.71,-363.77 -225.23,-671.39 -554.32,-818.62 -368.69,-164.94 -752.57,-61.75 -1012.09,197.77 -117.07,117.07 -285.42,388.65 -264.66,645.63z"/>
   <path class="fil2" d="M22933.96 9858.49c10.26,-30.57 23.63,-87.02 -15.76,-95.08l-146.81 6.67c-59.1,2.29 -110.16,11.06 -172.21,10.97 -60.86,-0.09 -296.74,-27.48 -333.68,-10.97l2.05 85.89c77.91,14.55 209.13,-0.7 229.74,89.31 30.37,132.62 34.59,798.88 16.4,913.82l-337.93 -394.38c-39.54,-45.66 -73.26,-90.96 -110.83,-135.79 -119.75,-142.91 -213.01,-267.55 -322.57,-417.04 -28.23,-38.52 -68.74,-114.24 -96.43,-144.7 -51.72,-1.13 -98.17,8.34 -147.67,11.87 -146.13,10.44 -387.78,-18.5 -450.69,-9.78 -15.57,141.28 19.5,64.21 153.52,125.11 57.32,26.06 73.94,115.99 79.3,192.24 9.61,136.6 5.08,908.66 1.18,1080.54 -1.27,55.96 -10.28,193.7 -39.02,229.08 -43.86,54 -152.73,30.58 -205.34,66.34 -12.19,24.61 -9.07,54.55 -4.38,87.67 45.63,12.85 260.14,-17.17 333.69,-17.03 103.55,0.21 248.02,29.63 337.01,19.75 20.95,-142.08 -26.87,-79.26 -166.44,-129.3 -59.47,-21.32 -68.82,-53.16 -76.89,-120.42 -14.15,-118 -22.99,-1040.7 -10.4,-1145.97 32.9,27.06 267.89,324.62 299.47,364.12l737.67 905.77c94.36,116.29 96.17,145.74 201.9,124.74 16.51,-102.07 -6.97,-361.09 -6.97,-483.43 0,-302.02 -6.15,-674.97 7.75,-969.41 12.93,-273.97 47.55,-200 244.34,-240.59z"/>
   <path class="fil3" d="M4792.71 9874.28c-436.85,105.8 -418.27,1033.81 -157.69,1391.55 98.84,135.7 262.01,222.76 443.25,180 158.03,-37.28 246.59,-180.34 294.93,-337.72 96.31,-313.63 50.42,-768.67 -137.2,-1051.08 -67.04,-100.91 -245.72,-230.59 -443.29,-182.75z"/>
   <path class="fil2" d="M1037.95 10836.87c214.83,43.32 197.94,11.33 197.99,404.19 0.02,136.25 25.02,159.67 -107.38,191.18 -429.33,102.18 -671.64,-302.61 -696.86,-750.82 -17.03,-302.59 59,-711.47 387.92,-798.86 173.81,-46.18 356.18,-0.94 480.09,83.7 130.88,89.39 167.61,256.16 177.03,267.08 29.13,33.75 79.53,2.09 102.53,-19.5 4.89,-70.34 -70.75,-329.76 -87.37,-414.59 -201.26,-30.84 -386.37,-56.24 -603.97,-47.6 -225.86,8.97 -516.23,134.62 -654.11,317.63 -48.56,64.46 -72.66,72.63 -131.15,189.23 -77.16,153.82 -119.42,329.33 -96.42,531.15 40.1,351.94 297.74,612.18 577.94,714.03 184.87,67.2 361.24,70.43 564.1,38.93 91.31,-14.18 173.63,-38.57 253.96,-66.53 295,-102.66 202.91,-84.8 203.37,-276.11 0.19,-80.9 -16.53,-290.92 41.17,-325.92 10.93,-6.63 52.47,-17.81 69.25,-21.27l74.07 -22.69 -4.05 -86.24c-128.93,0.71 -248.82,15.23 -380.39,15.12 -88.59,-0.08 -296.43,-25.91 -370.24,-10.25l2.52 88.14z"/>
   <path class="fil2" d="M16221.26 9771.52c-35.01,-23.94 -239.77,9.85 -303.09,10.48 -104.07,1.03 -205.71,-9.88 -309.22,-17.79 -78.56,-6.01 -38.46,90.47 -28.74,96.42 48.36,29.57 181.28,-20.66 208.44,119.56 34.47,177.99 29.1,600.48 20.24,777.15 -13.1,260.98 -94.54,558 -362.87,608.96 -282.19,53.6 -472.45,-119.17 -530.77,-427.99 -22.26,-117.83 -22.03,-772.75 -9.92,-946.51 10.9,-156.42 79.88,-95.05 187.74,-134.18 11.12,-35.73 12.68,-60.84 -2.91,-89.76 -17.88,-6.18 -319.64,14.3 -379.99,14.2 -64.01,-0.11 -355.58,-23.56 -379.11,-13.13 -16.25,25.82 -14.51,54.17 -3.03,87.73 105.52,48.95 176.34,-35.9 188.18,148.56 19.47,303.23 -19.51,656.38 22.03,971.75 21.37,162.25 88.64,346.62 224.14,442.11 301.53,212.5 724.46,202.18 989.22,-40.42 379.84,-348.04 155.68,-1002.5 253.87,-1414.37 17.35,-72.78 57.78,-87.25 150.9,-96.54 10.18,-1.01 27.8,-1.31 35.92,-2.97 65.79,-13.4 35.06,-84.11 28.97,-93.26z"/>
   <path class="fil2" d="M6139.28 9848.88c13.14,15.02 -12.08,9.35 35.11,17.86 94.57,17.04 144.63,-9.18 153.33,141.55 17.71,306.73 -18.32,709.51 25.46,993.48 65.62,425.72 397.32,599.17 783.28,562.65 275.36,-26.06 488.9,-180.26 591.83,-435.17 101.93,-252.44 57.56,-671.15 63.89,-956.69 1.68,-75.43 0.58,-236.04 62.36,-273.21 94.47,-56.85 229.21,13.39 179.08,-133.66 -64.91,-9.96 -240.01,16.47 -324.96,16.38 -85.42,-0.1 -259.67,-25.55 -324.92,-16.42 -11.44,34.7 -9.46,57.61 -1.1,92.91 173.53,49.73 221.77,-41.13 236.85,314.44 12.1,285.29 42.12,745.04 -94.88,990.94 -149.13,267.65 -537.12,284.95 -705.19,29.55 -76.87,-116.79 -102.1,-272.48 -107.58,-437.28 -5.98,-179.67 -0.29,-369.76 -0.29,-550.58 0,-303.56 -12.78,-320.84 142.07,-337.62 99.83,-10.82 51.52,-97.2 50.84,-97.93 -22.23,-11.2 -324.55,12.22 -387.37,11.97 -60.52,-0.25 -356.7,-23.1 -378.59,-11.97 -9.9,24.91 -13.94,55.81 0.78,78.8z"/>
   <path class="fil2" d="M9226.48 10768.46c371.05,-42.84 581.43,-429.71 431.02,-720.31 -180.43,-348.59 -646.26,-273.29 -970.6,-271.23 -125.68,0.81 -284.75,-15.66 -402.96,-6.88 -4.57,27.65 -7.16,61.87 0.94,90.44 127.07,68.3 194.76,-98.95 195.53,304.06 0.31,158.71 12.57,1145.34 -18.49,1229.12 -26.05,70.27 -118.4,36.06 -176.93,69.28 -8.98,30.84 -6.14,60.82 -1.13,90.53 112.35,5.52 267.86,-19.68 386.06,-18.49 71.67,0.72 340.14,25.1 382.84,14.81 32.93,-171.4 -115.6,-55.38 -171.41,-141.74 -19.63,-30.37 -24.24,-154.78 -24.42,-199.86 -0.78,-196.13 -17.31,-1261.17 18.65,-1306.71 35.75,-30.38 115.93,-29.8 171.39,-21.74 302.32,43.93 344.08,666.23 83.7,745.58 -70.11,21.37 -114.29,-4.4 -167.49,4.83 -37.03,117.99 160.06,150.23 263.3,138.31z"/>
   <path class="fil2" d="M17425.52 10767.09c388.19,-54.37 567.42,-458.89 416.97,-727.41 -192.77,-344.06 -659.68,-264.17 -970.79,-262.75 -72.3,0.33 -356.05,-15.06 -399.36,-3.3 -25.67,141.79 40.95,78.28 140.62,115.4 39.53,14.72 41.21,35.12 46.86,84.89 16.51,145.44 19.46,1307.25 -6.38,1411.43 -30.68,123.68 -215.72,-23.24 -181.19,164.56 44.06,10.64 309.31,-14.94 383.08,-14.96 120.59,-0.05 268.1,21.8 385.96,18.87 5.17,-33.03 8.69,-56.62 -1.11,-90.88 -41.53,-23.46 -132.59,-10.96 -164.89,-47.5 -45.56,-51.54 -31.04,-507.29 -31.04,-593.49 0,-271.96 -8.77,-559.06 2.33,-829.15 3.57,-86.8 7.7,-108.7 95.84,-115.32 357.36,-26.85 408.02,441.82 293.84,646.22 -24.94,44.65 -59.32,81.37 -107.16,98.2 -69.15,24.33 -143.58,-2.92 -179.02,11.05 -16.92,129.74 165.74,149.5 275.44,134.14z"/>
   <path class="fil2" d="M9998.38 9776.34c-42.91,129.62 56.37,84.48 138.54,112.54 40.82,13.93 42.87,37.7 47.45,84.55 15.3,156.14 20.43,1307.94 -6.51,1410.9 -20.12,76.86 -122.52,43.9 -179.55,76.46 -9.66,28.27 -10.5,59.34 2.17,84.9 21.78,23.07 1299.35,5.71 1306.14,0.49 6.67,-9.44 1.14,2.54 9,-17.77l62.86 -216.33c18.32,-54.51 71.48,-179.55 75.26,-226.22 -133.78,-50.04 -118.75,24.95 -177.12,140.29 -26.54,52.46 -63.12,99.3 -99.31,130.79 -96.27,83.78 -235.99,76.45 -387.03,75.55 -211.43,-1.27 -218.05,-39.38 -219.38,-240.47 -0.48,-73.02 -15.79,-413.45 7.1,-450.03 34.77,-46.08 241.89,-32.15 310.56,-26.73 222.05,17.52 107.78,218.35 230.07,198.74 31.32,-5.02 30.56,-19.23 30.83,-50.13 0.72,-84.05 5.74,-450.26 -8.12,-482.53 -136.52,-44.35 -47.65,152.26 -205.75,191.6 -78.52,19.53 -306.96,20.13 -363.33,-17.43 -10.71,-131.93 -1.48,-303.96 -1.5,-440.28 -0.03,-220.16 -31.24,-237.59 194.9,-237.58 153.87,0 273.23,-20.27 358.86,75.92 125.47,140.95 72.76,251.62 204.76,207.42 13.13,-48.75 -63.06,-318.12 -68.46,-403.2l-955.36 17.68c-69.17,0.02 -260.3,-19.6 -307.08,0.87z"/>
   <path class="fil2" d="M20549.96 9757.11c-118,11.3 -681.77,18.37 -826.98,18.36 -42.07,-0.01 -411.62,-6.3 -417.57,-3.99 -16.6,6.44 -16.92,10.07 -18.22,39.51 -3.14,71.11 26.21,57.59 89.84,66.95 85.34,12.56 95.47,12.74 103.86,101.74 24.21,256.87 8.81,570.57 8.81,834.06 0,86.05 18.21,555.87 -35.15,602.77 -27.88,24.51 -96.75,26.41 -125.28,32 -10.85,2.13 -10.23,1.74 -19.7,5.53 -32.39,12.95 -32.84,86.62 4.36,97.52l639.14 1.4c109.54,-0.63 219.17,-0.7 328.72,-0.98 97.15,-0.26 231.29,7.11 324.03,-3.32 25.19,-68.25 45.87,-165.39 68.41,-235.61 18.2,-56.71 72.06,-178.02 75.32,-228.3 -122.4,-37.87 -114.78,7.01 -139.36,65.68 -10.84,25.88 -24.32,52.52 -37.66,77.46 -114.34,213.66 -252.15,205.28 -479.77,204.6 -58.05,-0.18 -163.04,-7.88 -193.92,-38.67 -56.47,-56.34 -32.87,-646 -27.98,-654.04 57.2,-45.29 254,-32.31 334.39,-22.25 140.99,17.64 111.03,109.51 166.04,193.41 103.57,12.9 73.37,-16.71 73.37,-277.99 0,-241.83 25.46,-272.64 -74.9,-255.53 -46.02,97.08 -36.64,182.58 -165.8,201.28 -98.54,14.27 -252.45,7.81 -335.62,-16.38 -8.46,-138.78 -1.58,-297.87 -1.61,-438.87 -0.04,-214.94 -36.16,-245.4 184.96,-245.81 255.68,-0.48 341.85,-23.92 447.5,201 29.93,63.72 26.08,113.2 125.74,83.2 10.3,-36.22 -70.99,-396.64 -74.97,-404.73z"/>
   <path class="fil2" d="M12700.06 9771.59c-10.97,90.64 -2.11,88.36 30.71,93.94 144.18,24.52 163.46,2.63 166.63,233.23 2.32,168.46 12.33,1185.48 -15.32,1286.31 -19.18,69.95 -108.91,49.4 -163.22,68.78 -41.77,14.91 -15.83,88.4 -14.01,90.46l40.69 10.24c11.13,0.57 29.67,-0.54 41.6,-0.74 201.11,-3.29 1206.07,5.43 1223.79,-8.01 14.28,-10.82 15.49,-39.59 20.49,-62.75 23.89,-110.71 119.39,-334.27 128.25,-399.46 -34.6,-9.47 -74.34,-15.53 -110.68,-9.8 -77.01,207.1 -147.92,335.9 -373.92,356.31 -77.51,7.01 -277.42,7.95 -341.75,-20.36 -78.26,-34.46 -59.12,-212.96 -59.13,-300.17 -0.02,-186.84 -9.67,-938.39 2.82,-1090.43 9.59,-116.7 15.7,-131.62 120.29,-148.27 10.53,-1.68 38.47,-4.33 45.45,-6.17 42.43,-11.23 38.97,-58.21 26.26,-94.62 -20.56,-8.61 -323.05,10.46 -377.74,10.53 -63.97,0.08 -359.57,-20.74 -391.21,-9.02z"/>
   <path class="fil2" d="M18759.2 10164.54c0,-295.84 4.67,-273.86 148.6,-296.85 6.31,-1.01 20.94,-3.76 27.21,-5.58 48.64,-14.12 17.1,-90.02 15.27,-91.72 -28.62,-14.74 -313.92,12.07 -377.78,11.97 -119.86,-0.19 -274.73,-23.31 -383.51,-17.67 -12.34,37.78 -10.11,56.64 -2.24,95.09 75.84,14.06 164.46,6.01 181.98,81.55 23.01,99.16 24.36,1358.8 -3.5,1445.45 -25.22,78.48 -116.18,41.51 -178.21,76.16 -9.28,29.55 -5.87,61.7 -0.58,90.27 107.07,7.45 269.29,-18.3 386.06,-17.7 74.29,0.39 340.77,29.92 381.68,11.98 47.96,-165.74 -147,-55.61 -178.42,-155.79 -30.32,-96.69 -16.56,-1073 -16.56,-1227.16z"/>
   <path class="fil3" d="M2652.07 10626.68c42.97,23.36 190.8,6.64 248.24,-27.57 237.5,-141.47 178.04,-521.65 85.15,-641.89 -38.69,-50.09 -113.29,-83.6 -207.7,-81.87 -133.07,2.45 -129.46,36.94 -129.54,165.59 -0.06,105.92 -13.06,518.01 3.85,585.74z"/>
  </g>
 </g>
</svg>
