<?xml version="1.0" encoding="UTF-8"?>
<!DOCTYPE svg PUBLIC "-//W3C//DTD SVG 1.1//EN" "http://www.w3.org/Graphics/SVG/1.1/DTD/svg11.dtd">
<!-- Creator: CorelDRAW 2020 (64-Bit) -->
<svg xmlns="http://www.w3.org/2000/svg" xml:space="preserve" width="226.804mm" height="226.804mm" version="1.1" style="shape-rendering:geometricPrecision; text-rendering:geometricPrecision; image-rendering:optimizeQuality; fill-rule:evenodd; clip-rule:evenodd"
viewBox="0 0 22680.42 22680.42"
 xmlns:xlink="http://www.w3.org/1999/xlink"
 xmlns:xodm="http://www.corel.com/coreldraw/odm/2003">
 <defs>
  <style type="text/css">
   <![CDATA[
    .str0 {stroke:black;stroke-width:17.64;stroke-linecap:round;stroke-linejoin:round;stroke-miterlimit:22.9256;stroke-opacity:0.188235}
    .fil2 {fill:none}
    .fil3 {fill:#174940}
    .fil4 {fill:#215127}
    .fil0 {fill:white}
    .fil1 {fill:black;fill-opacity:0.188235}
   ]]>
  </style>
    <clipPath id="id0">
     <path d="M11340.21 0c6263.02,0 11340.21,5077.19 11340.21,11340.21 0,6263.02 -5077.19,11340.21 -11340.21,11340.21 -6263.02,0 -11340.21,-5077.19 -11340.21,-11340.21 0,-6263.02 5077.19,-11340.21 11340.21,-11340.21z"/>
    </clipPath>
 </defs>
 <g id="Plan_x0020_1">
  <metadata id="CorelCorpID_0Corel-Layer"/>
  <g id="_1469690712672">
   <path class="fil0" d="M11340.21 0c6263.02,0 11340.21,5077.19 11340.21,11340.21 0,6263.02 -5077.19,11340.21 -11340.21,11340.21 -6263.02,0 -11340.21,-5077.19 -11340.21,-11340.21 0,-6263.02 5077.19,-11340.21 11340.21,-11340.21z"/>
   <g style="clip-path:url(#id0)">
    <g>
     <polygon id="1" class="fil1 str0" points="12904.7,23686.43 10003.92,20731.02 8704.74,17515.36 7181.32,15991.92 5581.3,6173.96 9311.24,7584.05 11292.47,8204.81 12131.42,9085.12 16680.13,5719.08 17092.23,3134.98 23932.31,9975.08 22002.09,19410.63 "/>
    </g>
   </g>
   <path class="fil2" d="M11340.21 0c6263.02,0 11340.21,5077.19 11340.21,11340.21 0,6263.02 -5077.19,11340.21 -11340.21,11340.21 -6263.02,0 -11340.21,-5077.19 -11340.21,-11340.21 0,-6263.02 5077.19,-11340.21 11340.21,-11340.21z"/>
   <g>
    <path class="fil3" d="M14208.68 8618.22c-136.47,189.52 -863.28,866.77 -1080.81,1103.88l-441.39 476.64c-34.81,34.58 -43.87,53.87 -75.32,92.23l-205.62 244.76c-949.16,1183.77 -1624.79,2461.91 -2002.26,4123.75 -207.67,914.28 -368.18,2405.16 -198.01,3365.15 109.26,616.41 162.25,692.36 536.84,616.33 1076.85,-218.56 2137.09,-675.07 3015.11,-1294.02 197.4,-139.15 505.08,-374.31 684.14,-534.51 114.44,-102.39 209.17,-178.37 322.24,-295.36l754.88 -798.48c677.73,-817.68 1331.51,-1863.45 1735,-2855.88 118.48,-291.44 241.5,-575.2 346.82,-888.56 560.14,-1666.55 863,-3531.96 580.76,-5330.59 -156.62,-998.14 -470.2,-1945.86 -830.9,-2859.58 -59.32,-150.28 -129.93,-289.49 -180.91,-436.72 -52.91,-152.8 -99.22,-310.38 -199.44,-399.99l-40.72 91.58c-127.18,450.45 -272.33,912.51 -469.09,1333.44 -139.07,297.52 -569.7,885.43 -810.14,1126.5 -171.07,171.51 -295.31,322.32 -479.82,488.8 -51.26,46.25 -74.86,68.29 -128.33,121.79 -281.1,281.26 -1186.86,931.47 -1505.09,1132.6 -788.98,498.65 -1655.4,944.02 -2413.55,1460.2 -482.5,328.51 -925.34,675.02 -1346.73,1074.16 -90.23,85.47 -153.27,156.78 -235.37,249.15 -491.88,553.43 -818.01,956.92 -1165.11,1722.2 -207.16,456.77 -370.82,922.76 -474.13,1463.75 -212.53,1112.92 -221.76,2408.38 12.96,3513.85 282.25,1329.37 794.98,2504.58 1596.78,3479.37 240.34,292.2 342.6,367.2 582.64,619.7l248.11 236.14c73.02,74.91 431.49,387.84 530.78,415.95 -59.22,-119.66 -211.87,-266.57 -432.06,-765.01 -381.73,-864.05 -671.17,-1758.17 -837.45,-2717.73 -353.69,-2041.11 -30.38,-4101.51 1079.94,-5774.07 301.85,-454.71 809.82,-1102.09 1195.92,-1475.21 53.39,-51.6 91.03,-103.09 143.09,-157.81l448.46 -436.16c323.48,-282.66 762.34,-719.07 1084.21,-986.6 150.14,-124.79 509.97,-512.96 653.57,-545.64z"/>
    <path class="fil4" d="M8319.89 11021.76c-65.32,-67.26 -1143.35,-1779.99 -1239.95,-1942.42 -144.86,-243.56 -1177.58,-1867.65 -1138.09,-2035.79 95.26,-28.66 95.27,41.45 219.04,166.61 221.28,223.78 940.92,1148.86 1220.43,1484.23 168.75,202.49 1284.85,1672.26 1369.99,1710.75 171.71,-271.42 576.78,-754.87 816.53,-970.82 478.6,-431.09 806.39,-676.58 1364.53,-1006.39 70.48,-41.65 330.97,-169.29 360.09,-223.12 -69.58,-150.87 -1121.74,-898.21 -1290.84,-995.27 -471.67,-270.74 -968.84,-534.69 -1501.01,-769.46 -553.57,-244.22 -1077.38,-421.22 -1705.72,-582.37 -303.71,-77.88 -1630.22,-418.04 -1878.88,-388.39 -85.7,130.62 -196.87,1307.86 -216.51,1549.62 -127.48,1569.28 -15.36,3318.93 385.74,4806.78 371.38,1377.61 1082.16,3093.04 2010.99,4166.19l303.27 347.79c39.68,49.98 45.52,88.86 133.34,75.34 9.22,-56.98 -515.02,-2002.36 274,-4284.17 151.91,-439.33 506.84,-1090 513.05,-1109.11z"/>
   </g>
  </g>
 </g>
</svg>
