<?xml version="1.0" standalone="no"?>
<!DOCTYPE svg PUBLIC "-//W3C//DTD SVG 20010904//EN"
 "http://www.w3.org/TR/2001/REC-SVG-20010904/DTD/svg10.dtd">
<svg version="1.0" xmlns="http://www.w3.org/2000/svg"
 width="2048.000000pt" height="2048.000000pt" viewBox="0 0 2048.000000 2048.000000"
 preserveAspectRatio="xMidYMid meet">
<metadata>
Created by potrace 1.16, written by Peter Selinger 2001-2019
</metadata>
<g transform="translate(0.000000,2048.000000) scale(0.100000,-0.100000)"
fill="#000000" stroke="none">
<path d="M15305 17774 c-9 -22 -45 -136 -80 -254 -171 -576 -331 -970 -507
-1245 -198 -308 -385 -546 -668 -847 -367 -390 -603 -603 -1000 -902 -604
-456 -810 -589 -1770 -1149 -939 -547 -1307 -784 -1755 -1130 -393 -304 -686
-569 -925 -837 -477 -536 -714 -874 -949 -1355 -443 -904 -636 -1766 -658
-2935 -13 -729 55 -1353 222 -2030 283 -1147 748 -2100 1408 -2890 205 -245
718 -753 955 -943 122 -98 232 -174 232 -159 0 5 -39 67 -86 138 -161 243
-266 455 -449 909 -387 958 -617 1889 -701 2840 -21 248 -30 829 -15 1080 80
1345 475 2513 1200 3545 463 659 932 1178 1721 1906 96 88 252 232 345 319 94
87 240 219 325 294 85 74 220 197 300 273 80 75 177 163 217 195 79 64 153
109 153 94 0 -20 -217 -246 -533 -556 -366 -358 -779 -798 -1003 -1070 -960
-1162 -1571 -2397 -1888 -3815 -232 -1042 -308 -2258 -187 -3001 63 -383 111
-524 203 -592 47 -35 149 -34 323 2 988 203 1975 640 2787 1232 440 321 656
515 1124 1011 439 464 602 662 911 1108 346 500 701 1123 917 1614 225 507
399 969 531 1401 428 1409 585 2734 469 3985 -57 621 -216 1345 -456 2080
-127 388 -323 914 -432 1159 -26 58 -67 164 -93 235 -51 147 -112 272 -148
306 l-24 22 -16 -38z"/>
<path d="M4429 15513 c-43 -113 -113 -610 -168 -1203 -140 -1503 -33 -3066
299 -4375 258 -1015 700 -2117 1178 -2935 251 -430 447 -700 806 -1115 86 -99
165 -190 176 -202 18 -22 80 -33 80 -15 0 5 -12 71 -26 148 -186 1011 -151
2122 100 3122 128 511 242 808 517 1353 l119 235 -94 141 c-316 478 -1259
1985 -1573 2513 -290 489 -448 790 -478 911 -14 56 68 41 113 -20 12 -17 66
-79 120 -138 195 -216 879 -1061 1425 -1761 457 -586 742 -942 816 -1022 50
-53 62 -62 70 -50 28 45 166 230 250 334 237 295 426 488 718 736 351 297 678
523 1092 754 168 94 221 130 221 150 0 54 -572 502 -1036 813 -218 146 -861
491 -1254 674 -660 305 -1152 474 -1987 683 -759 190 -1271 296 -1427 296 -41
0 -48 -3 -57 -27z"/>
</g>
</svg>
