<?xml version="1.0" standalone="no"?>
<!DOCTYPE svg PUBLIC "-//W3C//DTD SVG 20010904//EN"
 "http://www.w3.org/TR/2001/REC-SVG-20010904/DTD/svg10.dtd">
<svg version="1.0" xmlns="http://www.w3.org/2000/svg"
 width="350.000000pt" height="368.000000pt" viewBox="0 0 350.000000 368.000000"
 preserveAspectRatio="xMidYMid meet">
<metadata>
Created by potrace 1.16, written by Peter Selinger 2001-2019
</metadata>
<g transform="translate(0.000000,368.000000) scale(0.100000,-0.100000)"
fill="#000000" stroke="none">
<path d="M1480 3657 c-77 -18 -264 -105 -311 -145 -37 -32 -95 -134 -102 -180
-2 -12 -7 -25 -12 -29 -4 -5 -5 -2 -1 5 11 18 3 16 -109 -37 -403 -190 -712
-541 -854 -968 -69 -210 -101 -469 -82 -664 34 -334 131 -606 305 -852 l77
-108 85 173 85 173 -40 3 -41 3 0 43 c0 55 21 70 135 98 82 20 83 21 69 43 -8
12 -17 48 -20 81 l-6 59 -146 0 -146 0 -18 47 c-44 119 -62 245 -62 438 1 192
14 290 61 430 l18 55 300 3 c165 2 392 0 505 -4 l204 -6 -44 -24 c-34 -18 -38
-22 -17 -18 22 5 35 1 55 -18 15 -13 47 -37 72 -53 25 -16 47 -31 50 -33 3 -2
-2 -9 -10 -15 -35 -28 -110 -127 -110 -146 0 -36 39 -46 121 -32 75 12 127 34
175 74 42 34 60 38 79 17 30 -33 106 -62 180 -67 67 -5 73 -4 89 18 21 31 21
33 -15 74 -17 19 -28 35 -25 35 4 0 91 -39 105 -47 2 -1 -2 -17 -8 -35 -15
-41 -74 -332 -92 -452 -19 -123 -17 -122 -229 -116 -302 9 -357 6 -427 -23
-79 -32 -93 -23 -93 59 0 59 -19 117 -43 130 -9 5 -24 48 -36 98 -12 49 -30
109 -41 134 -23 51 -24 56 -10 47 6 -4 -1 10 -15 31 -14 20 -25 41 -25 45 0 5
-4 9 -9 9 -6 0 -6 -13 0 -32 28 -95 69 -265 69 -287 0 -24 -3 -26 -53 -28 -76
-4 -123 -9 -134 -16 -5 -4 -30 -9 -54 -13 -24 -4 -50 -11 -56 -16 -7 -6 -20
-8 -28 -4 -8 3 -15 1 -15 -4 0 -6 -4 -10 -10 -10 -47 0 85 361 169 460 l29 35
31 -23 c35 -26 36 -24 16 24 -15 36 -13 54 6 54 12 0 150 62 146 66 -9 9 -182
-76 -221 -108 -81 -68 -143 -204 -201 -441 -41 -165 -41 -165 -17 -144 27 25
140 73 200 86 86 18 216 14 242 -7 27 -22 39 -120 20 -176 -10 -33 -15 -36
-49 -36 -101 0 -227 -55 -321 -139 l-65 -59 38 -7 c37 -7 41 -5 90 43 131 128
316 153 529 70 74 -28 225 -109 238 -127 3 -4 26 -22 53 -41 26 -18 47 -39 47
-47 0 -20 -53 -48 -166 -89 -57 -20 -105 -42 -108 -50 -7 -18 2 -18 19 -1 17
17 199 40 285 35 63 -3 65 -4 70 -33 7 -33 23 -35 55 -5 27 25 104 59 135 60
19 0 4 12 -55 43 -44 24 -134 78 -200 121 -139 90 -262 151 -390 190 -141 44
-135 39 -74 66 52 24 65 25 359 31 203 4 318 10 345 19 51 16 179 7 260 -18
175 -55 314 -163 350 -273 15 -44 19 -48 36 -38 25 13 56 3 69 -21 25 -46 -50
-137 -91 -112 -19 12 -51 9 -101 -10 -23 -8 -26 -14 -21 -41 5 -31 3 -33 -70
-69 -114 -56 -138 -82 -193 -208 -51 -117 -62 -127 -104 -90 -13 11 -27 20
-32 20 -22 0 11 109 74 243 23 48 39 89 37 91 -2 2 -19 7 -36 11 l-32 6 10
-30 c15 -44 -4 -93 -52 -135 -40 -34 -40 -34 -25 -65 21 -39 10 -68 -41 -110
-39 -33 -116 -61 -165 -61 -47 0 -95 26 -114 61 -21 42 -14 129 15 188 l22 42
-95 -78 -94 -78 48 -6 c60 -8 70 -14 69 -42 0 -12 2 -32 6 -43 7 -21 4 -22
-122 -29 -222 -13 -218 -13 -221 13 -4 24 -22 31 -22 7 0 -11 -11 -15 -37 -15
-21 0 -94 -5 -162 -10 -134 -9 -151 -7 -151 20 0 11 -4 22 -10 25 -35 22 12
74 168 187 45 33 82 61 82 63 0 1 -26 -3 -58 -10 -68 -14 -82 -11 -82 18 0 12
-9 33 -19 46 l-18 24 -46 -109 c-25 -60 -59 -144 -77 -186 -25 -60 -36 -78
-52 -78 -28 0 -88 49 -88 73 0 23 76 176 131 262 27 42 34 62 26 67 -19 12
-22 10 -41 -32 -20 -46 -80 -100 -145 -132 -52 -25 -166 -37 -184 -19 -6 6
-15 11 -19 11 -11 0 -120 -219 -113 -229 2 -5 42 -40 87 -79 216 -182 476
-307 762 -364 94 -19 143 -23 326 -23 183 0 232 4 326 23 287 57 545 182 763
366 l85 71 -37 3 c-20 2 -37 7 -37 11 0 5 -17 3 -37 -4 -24 -8 -47 -10 -67 -4
-49 14 -61 33 -61 98 1 48 7 68 35 116 74 122 197 215 287 215 24 0 43 5 43
10 0 14 76 12 88 -2 7 -9 -5 -47 -45 -133 -111 -243 -106 -231 -82 -209 47 42
174 236 229 349 100 206 147 377 171 626 14 142 3 295 -32 472 -85 426 -349
816 -709 1050 -154 99 -356 189 -371 165 -5 -7 -9 -8 -10 -3 0 6 -2 20 -3 32
-4 39 -75 133 -122 162 -25 16 -75 37 -112 46 -37 9 -115 34 -174 56 -124 45
-229 57 -318 36z m260 -219 c66 -31 100 -41 155 -46 46 -3 79 -11 97 -24 35
-24 70 -85 97 -168 12 -36 37 -85 56 -109 64 -80 36 -166 -51 -159 -38 3 -39
4 -42 46 l-3 43 35 -7 c20 -3 36 -4 36 0 0 8 -88 89 -114 103 -11 7 -50 22
-86 33 -70 21 -157 71 -166 95 -9 23 -24 18 -24 -8 0 -53 -61 -63 -138 -22
-59 31 -84 52 -116 100 -19 27 -26 32 -26 19 0 -24 51 -113 79 -138 29 -27 26
-36 -11 -36 -38 1 -131 37 -177 69 -51 36 -37 3 23 -55 30 -29 52 -55 48 -58
-10 -11 -63 -6 -99 9 -49 21 -52 13 -7 -22 62 -47 74 -62 74 -89 0 -22 -3 -24
-22 -18 -146 45 -195 155 -118 263 11 16 20 41 20 55 0 37 38 72 86 79 21 4
62 21 89 38 112 71 170 72 305 7z m110 -322 c52 -7 112 -21 133 -29 37 -16 37
-16 37 -76 0 -34 -3 -61 -7 -61 -5 0 -33 10 -63 22 -49 20 -73 22 -225 22
-129 0 -182 -4 -220 -16 -108 -35 -96 -39 -93 33 l3 63 50 19 c43 16 151 31
260 35 17 1 73 -4 125 -12z m72 -189 l56 -27 7 -86 c12 -139 3 -233 -29 -298
-15 -31 -32 -56 -37 -56 -6 0 -5 9 1 21 7 11 9 23 6 27 -7 7 -6 8 -40 -51 -38
-66 -103 -107 -169 -107 -65 0 -113 28 -157 91 -63 89 -62 88 -54 50 8 -44 -6
-34 -35 23 -28 56 -37 154 -26 290 l7 97 57 27 c54 26 63 27 207 26 141 -1
154 -2 206 -27z m1172 -674 c78 -249 79 -553 4 -818 l-23 -80 -165 -1 c-153
-2 -165 -3 -168 -20 -6 -38 -25 -75 -43 -84 -14 -8 -21 -3 -39 25 -32 52 -93
98 -205 152 l-100 49 23 35 c20 28 23 44 20 87 l-5 52 48 0 c64 0 167 -33 218
-70 l42 -31 -7 38 c-13 74 -42 180 -53 199 -12 18 -12 18 -7 -1 12 -45 36
-151 36 -158 0 -4 -19 3 -42 16 -46 25 -138 47 -199 47 -26 0 -41 6 -48 17 -8
16 -14 16 -41 6 l-32 -12 7 42 c4 23 21 85 36 137 16 52 32 104 35 115 5 16 3
16 -13 -5 -11 -14 -37 -69 -57 -122 -21 -53 -44 -99 -52 -102 -7 -3 -47 -31
-89 -62 -62 -47 -82 -69 -116 -130 -40 -74 -59 -91 -59 -55 0 45 52 317 85
445 40 157 43 144 -50 176 -89 30 -94 35 -55 55 18 9 52 35 76 57 l43 40 148
-67 c81 -37 158 -71 171 -76 18 -7 23 -14 18 -29 -21 -69 -21 -67 2 -46 12 10
27 16 34 13 7 -2 29 -32 48 -66 46 -80 67 -108 39 -51 -28 57 -66 116 -107
167 -9 12 -93 57 -186 100 l-170 78 95 6 c52 3 270 6 486 7 l392 2 25 -77z
m-408 -1276 c11 -11 -163 -402 -181 -405 -26 -6 -95 45 -95 70 0 22 125 260
166 314 20 27 29 31 64 29 22 -1 43 -5 46 -8z"/>
<path d="M1545 2914 c-8 -9 -22 -29 -31 -46 l-15 -30 38 26 c46 32 67 33 87 4
23 -32 20 -39 -10 -23 -28 14 -43 12 -83 -14 l-24 -15 24 -7 c16 -5 18 -7 7
-8 -35 -2 -17 -21 20 -21 29 0 34 -3 22 -11 -11 -8 -6 -9 22 -4 34 5 37 4 43
-25 11 -48 22 -35 27 33 6 69 -12 131 -43 147 -27 15 -66 12 -84 -6z"/>
<path d="M1788 2913 c-24 -26 -40 -73 -32 -95 3 -10 6 -40 6 -66 0 -43 1 -45
14 -28 8 11 14 26 14 33 0 10 10 12 38 8 27 -4 32 -3 17 4 -17 8 -15 10 15 10
44 2 78 20 40 22 l-25 1 24 7 24 7 -28 18 c-20 13 -39 17 -67 13 -38 -5 -39
-5 -25 16 20 31 47 32 86 2 46 -33 52 -24 14 23 -36 44 -88 55 -115 25z"/>
<path d="M1567 2699 c-21 -12 -13 -29 14 -29 10 0 19 -5 19 -11 0 -10 -27 -9
-70 2 -35 9 9 -140 52 -178 12 -10 19 -13 17 -8 -2 6 -13 32 -23 58 -22 56
-16 69 18 38 26 -25 80 -40 139 -41 44 0 70 11 111 49 l28 26 -7 -35 c-4 -19
-14 -48 -22 -65 -14 -30 -14 -30 17 5 28 32 43 68 52 125 3 18 -2 20 -39 17
-48 -4 -59 14 -16 24 25 7 25 8 8 20 -29 21 -75 18 -75 -5 0 -24 -73 -37 -116
-21 -16 6 -31 12 -34 13 -3 1 -4 8 -4 15 2 15 -44 16 -69 1z"/>
<path d="M2568 909 c-19 -31 -58 -104 -88 -163 l-55 -107 30 -24 c17 -14 35
-25 41 -25 7 0 24 30 40 68 15 37 49 117 76 177 27 61 51 115 54 121 3 6 -10
10 -30 10 -32 0 -38 -5 -68 -57z"/>
<path d="M605 1151 c-88 -25 -105 -37 -105 -71 0 -33 12 -37 68 -21 17 5 32 8
32 5 0 -2 -37 -77 -81 -167 -66 -131 -119 -253 -119 -273 0 -5 58 -34 68 -34
5 0 35 55 67 123 32 67 60 124 62 126 2 3 10 -5 19 -17 13 -18 25 -22 73 -22
74 0 162 42 220 105 36 39 41 51 41 90 0 77 -46 136 -129 164 -48 16 -146 12
-216 -8z m225 -93 c54 -28 63 -58 28 -95 -32 -34 -82 -58 -151 -73 -66 -13
-78 -9 -53 19 17 19 17 19 -3 14 -12 -3 -21 -3 -21 1 0 3 17 39 37 81 37 75
37 75 78 75 22 0 61 -10 85 -22z"/>
<path d="M695 1013 c-11 -26 -21 -51 -23 -55 -2 -4 8 -8 22 -8 28 0 33 -9 14
-28 -16 -16 -1 -15 53 3 44 15 109 65 109 83 0 5 -18 12 -39 16 -21 3 -41 13
-45 21 -3 9 -18 15 -38 15 -30 0 -35 -5 -53 -47z"/>
<path d="M2335 990 c-3 -5 -17 -10 -30 -10 -21 0 -30 -12 -60 -77 -39 -85
-105 -256 -105 -273 0 -5 5 -10 11 -10 6 0 17 -7 26 -15 8 -8 18 -13 22 -11 4
3 27 50 50 105 50 117 74 142 191 201 l79 40 -17 30 c-9 16 -23 30 -31 30 -7
0 -40 -18 -72 -39 -62 -41 -69 -40 -44 9 14 26 14 30 1 30 -8 0 -18 -4 -21
-10z"/>
<path d="M2975 990 c-3 -5 -25 -10 -47 -10 -23 0 -61 -9 -85 -21 -98 -47 -223
-213 -223 -296 0 -69 72 -95 146 -51 l36 21 -6 -21 c-6 -19 -4 -21 30 -19 l37
2 88 194 c49 106 89 198 89 202 0 12 -57 11 -65 -1z m-45 -79 c0 -16 -116
-185 -146 -213 -39 -36 -84 -53 -84 -32 0 27 30 87 70 140 52 69 160 140 160
105z"/>
<path d="M2012 976 c-89 -29 -151 -88 -197 -188 -52 -111 -15 -208 79 -208 52
0 131 33 168 70 37 37 48 60 28 60 -5 0 -10 8 -10 17 0 14 -3 13 -16 -5 -8
-12 -32 -31 -52 -41 -83 -42 -146 -35 -140 16 3 24 10 28 66 39 62 13 152 50
182 76 53 44 64 101 28 143 -28 32 -78 39 -136 21z"/>
<path d="M1006 931 c-47 -74 -146 -269 -146 -285 0 -20 38 -55 60 -56 10 0 29
34 54 98 22 53 57 135 78 181 21 46 38 87 38 91 0 4 -14 7 -31 7 -25 0 -35 -8
-53 -36z"/>
<path d="M1206 949 c-38 -5 -72 -11 -74 -14 -3 -3 2 -13 11 -23 10 -10 17 -26
17 -34 0 -14 11 -13 92 3 50 11 93 18 95 15 2 -2 -47 -41 -109 -88 -163 -123
-206 -163 -190 -179 6 -7 12 -22 12 -32 0 -17 6 -18 48 -13 26 3 95 8 155 12
89 5 106 9 96 20 -6 8 -9 20 -6 28 8 20 -35 28 -110 20 -35 -3 -63 -4 -63 -1
0 4 27 25 61 48 74 50 224 178 223 190 -1 5 -2 20 -2 34 -2 25 -3 25 -94 24
-51 -1 -124 -6 -162 -10z"/>
<path d="M1576 949 c-38 -5 -72 -11 -74 -14 -3 -3 2 -13 11 -23 10 -10 17 -26
17 -34 0 -14 11 -13 92 3 50 11 93 18 95 16 2 -2 -56 -49 -129 -104 -157 -119
-187 -148 -170 -165 7 -7 12 -20 12 -31 0 -16 5 -18 38 -13 20 3 90 8 155 12
99 5 116 8 106 20 -6 8 -9 20 -6 28 8 21 -40 29 -114 21 -32 -4 -59 -4 -59 -1
0 3 21 20 48 37 48 33 139 106 203 164 30 27 35 37 31 64 l-4 31 -92 -1 c-50
-1 -122 -6 -160 -10z"/>
<path d="M1467 874 c-15 -18 -67 -65 -116 -106 l-89 -73 48 -6 c60 -8 73 -16
67 -40 -3 -10 -1 -22 4 -25 5 -3 9 4 9 14 0 23 59 79 172 162 45 34 84 63 86
65 2 1 -25 -3 -60 -10 -34 -8 -66 -11 -70 -9 -4 3 -8 16 -8 29 0 36 -12 36
-43 -1z"/>
</g>
</svg>
