<?xml version="1.0" encoding="UTF-8" standalone="no"?>
<!DOCTYPE svg PUBLIC "-//W3C//DTD SVG 1.1//EN" "http://www.w3.org/Graphics/SVG/1.1/DTD/svg11.dtd">
<svg version="1.1" xmlns="http://www.w3.org/2000/svg" xmlns:xlink="http://www.w3.org/1999/xlink" preserveAspectRatio="xMidYMid meet" viewBox="0 0 640 640" width="640" height="640"><defs><path d="M459.47 170.8C459.47 163.56 459.47 105.59 459.47 98.35C459.47 83.53 447.92 71.34 433.18 70.59C344.23 66.06 296.42 29.68 275.84 8.4C270.61 2.98 263.56 0 256 0C248.44 0 241.39 2.98 236.16 8.4C215.58 29.68 167.77 66.06 78.82 70.59C64.08 71.34 52.53 83.53 52.53 98.35C52.53 119.26 52.53 286.55 52.53 307.46C52.53 367.68 84.93 423.8 137.1 453.92C145.58 458.82 213.46 498 221.95 502.9C232.45 508.97 244.22 512 256 512C267.77 512 279.55 508.97 290.05 502.9C298.54 498 366.42 458.82 374.91 453.92C427.07 423.8 459.47 367.68 459.47 307.46C459.47 297.29 459.47 215.97 459.47 205.8C459.47 201.66 456.11 198.3 451.97 198.3C447.83 198.3 444.47 201.66 444.47 205.8C444.47 215.97 444.47 297.29 444.47 307.46C444.47 362.34 414.94 413.48 367.41 440.93C358.92 445.83 291.04 485.01 282.55 489.91C266.17 499.37 245.83 499.37 229.45 489.91C220.96 485.01 153.08 445.83 144.59 440.93C97.06 413.48 67.53 362.34 67.53 307.46C67.53 286.55 67.53 119.26 67.53 98.35C67.53 91.53 72.83 85.91 79.58 85.57C173.67 80.78 224.82 41.7 246.94 18.83C249.33 16.36 252.54 15 256 15C259.46 15 262.67 16.36 265.06 18.83C287.17 41.7 338.33 80.78 432.41 85.57C439.17 85.91 444.47 91.53 444.47 98.35C444.47 105.59 444.47 163.56 444.47 170.8C444.47 174.94 447.83 178.3 451.97 178.3C456.11 178.3 459.47 174.94 459.47 170.8Z" id="b2IaeuWnN"></path><path d="M92.94 205.8C92.94 215.97 92.94 297.29 92.94 307.46C92.94 353.29 117.6 396 157.3 418.93C165.78 423.83 233.67 463.01 242.15 467.91C246.36 470.34 251.15 471.62 256 471.62C260.85 471.62 265.63 470.34 269.85 467.91C278.34 463.01 346.22 423.82 354.71 418.93C394.4 396 419.06 353.29 419.06 307.46C419.06 289.31 419.06 144.14 419.06 125.99C419.06 117.13 412.45 109.63 403.69 108.54C336.42 100.07 292.17 74.52 266.88 54.56C260.47 49.52 251.53 49.52 245.11 54.57C219.83 74.52 175.58 100.07 108.31 108.53C99.55 109.63 92.94 117.13 92.94 125.99C92.94 130.47 92.94 166.32 92.94 170.8C92.94 174.94 96.3 178.3 100.44 178.3C104.59 178.3 107.94 174.94 107.94 170.8C107.94 166.32 107.94 130.47 107.94 125.99C107.94 124.68 108.9 123.58 110.18 123.42C180.88 114.53 227.63 87.47 254.4 66.35C255.34 65.61 256.66 65.61 257.59 66.34C284.37 87.47 331.12 114.53 401.83 123.42C403.1 123.58 404.06 124.68 404.06 125.99C404.06 144.14 404.06 289.31 404.06 307.46C404.06 347.95 382.27 385.68 347.21 405.94C338.72 410.83 270.84 450.02 262.35 454.92C258.48 457.15 253.52 457.15 249.65 454.92C241.16 450.02 173.28 410.84 164.8 405.94C129.73 385.68 107.94 347.95 107.94 307.46C107.94 297.29 107.94 215.97 107.94 205.8C107.94 201.66 104.59 198.3 100.44 198.3C96.3 198.3 92.94 201.66 92.94 205.8Z" id="b2dZy5dBgt"></path><path d="M181.2 245.08C185.12 249 216.48 280.34 220.39 284.26C223.33 287.19 228.07 287.19 231 284.26C235.29 279.97 269.64 245.62 273.93 241.33C276.86 238.4 276.86 233.65 273.93 230.72C271 227.79 266.25 227.79 263.33 230.72C260.82 233.23 248.28 245.77 225.7 268.35C205.37 248.02 194.07 236.73 191.81 234.47C184.67 227.33 175.18 223.4 165.08 223.4C154.98 223.4 145.49 227.33 138.35 234.47C131.21 241.61 127.27 251.11 127.27 261.21C127.27 271.31 131.21 280.8 138.35 287.94C144.41 294 192.9 342.49 198.96 348.55C206.09 355.69 215.59 359.63 225.7 359.63C235.8 359.63 245.29 355.69 252.42 348.55C264.55 336.43 361.52 239.45 373.65 227.33C380.79 220.19 384.73 210.7 384.73 200.6C384.73 190.5 380.79 181 373.65 173.86C366.51 166.72 357.02 162.79 346.92 162.79C336.82 162.79 327.33 166.72 320.19 173.86C316.98 177.07 291.29 202.76 288.08 205.97C285.15 208.9 285.15 213.65 288.08 216.58C291.01 219.5 295.76 219.5 298.69 216.58C301.9 213.36 327.59 187.68 330.8 184.46C335.1 180.16 340.83 177.79 346.92 177.79C353.01 177.79 358.74 180.16 363.04 184.47C367.35 188.78 369.73 194.5 369.73 200.6C369.73 206.69 367.35 212.41 363.04 216.72C350.92 228.84 253.93 325.83 241.81 337.95C237.51 342.26 231.79 344.63 225.7 344.63C219.6 344.63 213.88 342.26 209.57 337.95C203.51 331.88 155.02 283.39 148.96 277.33C144.65 273.03 142.28 267.3 142.28 261.21C142.28 255.12 144.65 249.39 148.96 245.08C153.26 240.77 158.99 238.4 165.08 238.4C171.17 238.4 176.9 240.77 181.2 245.08Z" id="eXeerQdBm"></path></defs><g><g><g><use xlink:href="#b2IaeuWnN" opacity="1" fill="#ffffff" fill-opacity="1"></use><g><use xlink:href="#b2IaeuWnN" opacity="1" fill-opacity="0" stroke="#000000" stroke-width="1" stroke-opacity="0"></use></g></g><g><use xlink:href="#b2dZy5dBgt" opacity="1" fill="#ffffff" fill-opacity="1"></use><g><use xlink:href="#b2dZy5dBgt" opacity="1" fill-opacity="0" stroke="#000000" stroke-width="1" stroke-opacity="0"></use></g></g><g><use xlink:href="#eXeerQdBm" opacity="1" fill="#ffffff" fill-opacity="1"></use><g><use xlink:href="#eXeerQdBm" opacity="1" fill-opacity="0" stroke="#000000" stroke-width="1" stroke-opacity="0"></use></g></g></g></g></svg>