<?xml version="1.0" encoding="UTF-8" standalone="no"?>
<!DOCTYPE svg PUBLIC "-//W3C//DTD SVG 1.1//EN" "http://www.w3.org/Graphics/SVG/1.1/DTD/svg11.dtd">
<svg version="1.1" xmlns="http://www.w3.org/2000/svg" xmlns:xlink="http://www.w3.org/1999/xlink" preserveAspectRatio="xMidYMid meet" viewBox="0 0 640 640" width="640" height="640"><defs><path d="M425.06 17.01C428.25 11.69 426.54 4.79 421.21 1.61C415.88 -1.59 409 0.12 405.81 5.46C402.85 10.39 379.18 49.84 376.22 54.77C358.61 48.5 339.74 44.91 320.01 44.91C300.27 44.91 281.4 48.5 263.79 54.77C260.83 49.84 237.16 10.39 234.2 5.46C231.01 0.12 224.12 -1.58 218.8 1.61C213.48 4.79 211.76 11.69 214.95 17.01C217.75 21.68 240.18 59.07 242.98 63.74C188.79 91.75 151.59 148.23 151.59 213.34C151.59 219.55 156.62 224.57 162.82 224.57C194.25 224.57 445.76 224.57 477.2 224.57C483.39 224.57 488.42 219.55 488.42 213.34C488.41 148.24 451.23 91.77 397.03 63.74C402.64 54.39 422.26 21.68 425.06 17.01ZM320.01 67.38C396.71 67.38 459.79 126.85 465.54 202.11C446.14 202.11 349.11 202.11 174.47 202.11C220.35 112.29 268.87 67.38 320.01 67.38Z" id="a1rUxev8PN"></path><path d="M383.54 127.59C379.46 127.59 376.14 130.91 376.14 134.99C376.14 136.47 376.14 148.31 376.14 149.79C376.14 153.88 379.46 157.19 383.54 157.19C385.03 157.19 396.87 157.19 398.35 157.19C402.44 157.19 405.75 153.88 405.75 149.79C405.75 148.31 405.75 136.47 405.75 134.99C405.75 130.91 402.43 127.59 398.34 127.59C395.38 127.59 385.02 127.59 383.54 127.59Z" id="a5xgjQDjg"></path><path d="M241.65 127.59C237.56 127.59 234.25 130.91 234.25 134.99C234.25 136.47 234.25 148.31 234.25 149.79C234.25 153.88 237.56 157.19 241.65 157.19C243.13 157.19 254.97 157.19 256.46 157.19C260.54 157.19 263.86 153.88 263.86 149.79C263.86 148.31 263.86 136.47 263.86 134.99C263.86 130.91 260.54 127.59 256.46 127.59C253.49 127.59 243.13 127.59 241.65 127.59Z" id="fmW9n188"></path><path d="M162.8 235.8C156.61 235.8 151.58 240.82 151.58 247.02C151.58 269.67 151.58 450.85 151.58 473.5C151.58 503.4 175.93 527.72 205.85 527.72C206.72 527.72 211.09 527.72 218.94 527.72C218.94 568.18 218.94 590.66 218.94 595.16C218.94 619.88 239.09 640 263.86 640C288.62 640 308.77 619.88 308.77 595.16C308.77 590.66 308.77 568.18 308.77 527.72L331.22 527.72C331.22 568.18 331.22 590.66 331.22 595.16C331.22 619.88 351.37 640 376.13 640C400.9 640 421.05 619.88 421.05 595.16C421.05 590.66 421.05 568.18 421.05 527.72C428.9 527.72 433.26 527.72 434.14 527.72C464.07 527.72 488.41 503.4 488.41 473.5C488.41 450.85 488.41 269.67 488.41 247.02C488.41 240.82 483.39 235.8 477.18 235.8C414.31 235.8 194.24 235.8 162.8 235.8ZM434.14 505.27C431.7 505.27 412.25 505.27 409.82 505.27C403.62 505.27 398.59 510.28 398.59 516.49C398.59 524.36 398.59 587.29 398.59 595.16C398.59 607.51 388.52 617.54 376.13 617.54C363.75 617.54 353.68 607.5 353.68 595.16C353.68 587.29 353.68 524.36 353.68 516.49C353.68 510.28 348.65 505.27 342.45 505.27C337.96 505.27 302.03 505.27 297.54 505.27C291.34 505.27 286.31 510.28 286.31 516.49C286.31 524.36 286.31 587.29 286.31 595.16C286.31 607.51 276.24 617.54 263.86 617.54C251.47 617.54 241.4 607.5 241.4 595.16C241.4 587.29 241.4 524.36 241.4 516.49C241.4 510.28 236.37 505.27 230.17 505.27C227.74 505.27 208.29 505.27 205.86 505.27C188.31 505.27 174.03 491.01 174.03 473.5C174.03 459.15 174.03 387.4 174.03 258.25L465.96 258.25L465.96 473.5C456.44 494.68 445.84 505.27 434.14 505.27Z" id="j1ONj10rEO"></path><path d="M499.64 275.14C499.64 290.85 499.64 416.53 499.64 432.24C499.64 453.93 517.27 471.58 538.94 471.58C560.61 471.58 578.24 453.93 578.24 432.24C578.24 416.53 578.24 290.85 578.24 275.14C578.24 253.45 560.61 235.8 538.94 235.8C517.27 235.8 499.64 253.45 499.64 275.14ZM538.94 449.13C529.65 449.13 522.1 441.55 522.1 432.24C522.1 416.53 522.1 290.85 522.1 275.14C522.1 265.83 529.65 258.25 538.94 258.25C548.22 258.25 555.78 265.83 555.78 275.14C555.78 285.61 555.78 337.98 555.78 432.24C550.74 443.5 545.13 449.13 538.94 449.13Z" id="gRjEgpKxw"></path><path d="M61.75 275.14C61.75 290.85 61.75 416.53 61.75 432.24C61.75 453.93 79.38 471.58 101.05 471.58C122.72 471.58 140.35 453.93 140.35 432.24C140.35 416.53 140.35 290.85 140.35 275.14C140.35 253.45 122.72 235.8 101.05 235.8C79.38 235.8 61.75 253.45 61.75 275.14ZM101.05 449.13C91.77 449.13 84.21 441.55 84.21 432.24C84.21 416.53 84.21 290.85 84.21 275.14C84.21 265.83 91.77 258.25 101.05 258.25C110.34 258.25 117.89 265.83 117.89 275.14C117.89 285.61 117.89 337.98 117.89 432.24C112.86 443.5 107.24 449.13 101.05 449.13Z" id="c1ZLHXQVQZ"></path></defs><g><g><g><use xlink:href="#a1rUxev8PN" opacity="1" fill="#ffffff" fill-opacity="1"></use><g><use xlink:href="#a1rUxev8PN" opacity="1" fill-opacity="0" stroke="#000000" stroke-width="1" stroke-opacity="0"></use></g></g><g><use xlink:href="#a5xgjQDjg" opacity="1" fill="#ffffff" fill-opacity="1"></use><g><use xlink:href="#a5xgjQDjg" opacity="1" fill-opacity="0" stroke="#000000" stroke-width="1" stroke-opacity="0"></use></g></g><g><use xlink:href="#fmW9n188" opacity="1" fill="#ffffff" fill-opacity="1"></use><g><use xlink:href="#fmW9n188" opacity="1" fill-opacity="0" stroke="#000000" stroke-width="1" stroke-opacity="0"></use></g></g><g><use xlink:href="#j1ONj10rEO" opacity="1" fill="#ffffff" fill-opacity="1"></use><g><use xlink:href="#j1ONj10rEO" opacity="1" fill-opacity="0" stroke="#000000" stroke-width="1" stroke-opacity="0"></use></g></g><g><use xlink:href="#gRjEgpKxw" opacity="1" fill="#ffffff" fill-opacity="1"></use><g><use xlink:href="#gRjEgpKxw" opacity="1" fill-opacity="0" stroke="#000000" stroke-width="1" stroke-opacity="0"></use></g></g><g><use xlink:href="#c1ZLHXQVQZ" opacity="1" fill="#ffffff" fill-opacity="1"></use><g><use xlink:href="#c1ZLHXQVQZ" opacity="1" fill-opacity="0" stroke="#000000" stroke-width="1" stroke-opacity="0"></use></g></g></g></g></svg>